<?xml version="1.0" encoding="UTF-8"?>
<svg xmlns="http://www.w3.org/2000/svg" xmlns:xlink="http://www.w3.org/1999/xlink" width="194pt" height="194pt" viewBox="0 0 194 194" version="1.1">
<g id="surface1">
<path style=" stroke:none;fill-rule:evenodd;fill:rgb(100%,100%,100%);fill-opacity:1;" d="M 0.257813 0.675781 L 193.015625 0.675781 L 193.015625 193.433594 L 0.257813 193.433594 L 0.257813 0.675781 "/>
<path style=" stroke:none;fill-rule:evenodd;fill:rgb(92.89856%,8.999634%,29.798889%);fill-opacity:1;" d="M 180.578125 76.90625 C 178.242188 76.90625 176.523438 78.625 176.523438 80.839844 C 176.523438 83.050781 178.242188 84.769531 180.578125 84.769531 C 182.789063 84.769531 184.511719 83.050781 184.511719 80.839844 C 184.511719 78.625 182.789063 76.90625 180.578125 76.90625 Z M 180.457031 77.519531 C 180.457031 77.519531 180.457031 77.519531 180.578125 77.519531 C 182.300781 77.519531 183.652344 78.996094 183.652344 80.839844 C 183.652344 82.683594 182.300781 84.15625 180.578125 84.15625 C 178.734375 84.15625 177.382813 82.683594 177.382813 80.839844 C 177.382813 78.996094 178.613281 77.644531 180.457031 77.519531 Z M 178.980469 78.625 L 178.980469 83.171875 L 179.71875 83.171875 L 179.71875 81.207031 L 180.457031 81.207031 L 181.683594 83.171875 L 182.421875 83.171875 L 181.195313 81.085938 C 181.929688 81.085938 182.300781 80.59375 182.300781 79.855469 C 182.300781 78.996094 181.808594 78.625 180.703125 78.625 Z M 179.71875 80.59375 L 179.71875 79.117188 L 180.703125 79.117188 C 181.316406 79.117188 181.683594 79.363281 181.683594 79.855469 C 181.683594 80.347656 181.316406 80.59375 180.824219 80.59375 L 179.71875 80.59375 "/>
<path style=" stroke:none;fill-rule:evenodd;fill:rgb(92.89856%,8.999634%,29.798889%);fill-opacity:1;" d="M 56.082031 94.355469 C 53.992188 92.757813 51.410156 91.40625 47.96875 90.425781 C 43.546875 88.949219 37.277344 87.472656 34.695313 86.613281 C 33.097656 86 32.359375 85.015625 32.359375 83.664063 C 32.359375 81.820313 34.574219 80.714844 37.277344 80.59375 C 41.703125 80.714844 43.054688 83.171875 43.300781 85.015625 L 56.082031 85.015625 Z M 72.058594 106.277344 L 81.523438 106.277344 C 89.757813 106.15625 96.390625 101.976563 99.710938 96.078125 C 99.957031 95.585938 100.203125 95.09375 100.449219 94.601563 C 100.941406 95.21875 101.433594 95.585938 101.921875 96.078125 C 104.257813 98.042969 107.085938 99.519531 110.15625 100.503906 C 115.074219 102.222656 118.882813 103.453125 120.234375 103.945313 C 122.691406 105.050781 124.289063 105.785156 124.289063 108 C 124.289063 110.582031 121.339844 111.6875 118.390625 111.808594 C 114.335938 111.6875 110.15625 109.71875 110.28125 105.539063 L 94.058594 105.539063 C 94.917969 116.234375 105.488281 124.589844 118.023438 124.835938 C 125.644531 124.714844 132.648438 122.5 137.195313 117.09375 C 141.742188 121.765625 147.027344 124.714844 154.523438 124.835938 C 166.324219 124.714844 178.613281 118.9375 178.734375 106.402344 C 178.734375 102.46875 177.628906 98.90625 175.171875 96.078125 C 172.960938 93.496094 169.761719 91.652344 165.339844 90.425781 C 160.914063 88.949219 154.648438 87.472656 152.066406 86.613281 C 150.46875 86 149.730469 85.015625 149.730469 83.664063 C 149.730469 81.820313 151.941406 80.714844 154.648438 80.59375 C 159.070313 80.714844 160.421875 83.171875 160.667969 85.015625 L 176.03125 85.015625 C 176.15625 74.445313 167.304688 67.320313 154.648438 67.320313 C 145.183594 67.320313 138.792969 70.882813 135.71875 76.046875 C 132.277344 70.636719 125.398438 67.320313 116.792969 67.320313 C 107.699219 67.320313 101.554688 70.761719 98.234375 75.675781 C 94.546875 70.882813 88.402344 67.8125 81.03125 67.8125 L 56.082031 67.8125 L 56.082031 75.921875 C 52.640625 70.515625 45.757813 67.320313 37.277344 67.320313 C 24.128906 67.320313 17 74.570313 16.261719 82.925781 C 16.261719 88.089844 18.71875 92.757813 22.652344 96.078125 C 24.863281 98.042969 27.570313 99.519531 30.640625 100.503906 C 35.554688 102.222656 39.367188 103.453125 40.71875 103.945313 C 43.175781 105.050781 44.773438 105.785156 44.773438 108 C 44.773438 110.582031 41.703125 111.6875 38.875 111.808594 C 34.820313 111.6875 30.640625 109.71875 30.765625 105.539063 L 14.539063 105.539063 C 15.402344 116.234375 25.96875 124.589844 38.507813 124.835938 C 45.390625 124.714844 51.78125 122.871094 56.082031 118.816406 L 56.082031 123.976563 L 72.058594 123.976563 Z M 72.058594 81.085938 L 80.660156 81.085938 C 83.855469 81.085938 86.558594 83.785156 86.558594 87.105469 C 86.558594 90.425781 83.855469 93.128906 80.660156 93.128906 L 72.058594 93.128906 Z M 137.316406 96.078125 C 135.105469 93.496094 131.910156 91.652344 127.484375 90.425781 C 123.0625 88.949219 116.792969 87.472656 114.335938 86.613281 C 112.613281 86 111.878906 85.015625 111.878906 83.664063 C 111.878906 81.820313 114.089844 80.714844 116.792969 80.59375 C 121.339844 80.714844 122.570313 83.171875 122.816406 85.015625 L 133.632813 85.015625 C 134.246094 89.316406 136.457031 93.128906 139.898438 96.078125 C 142.234375 98.042969 144.9375 99.519531 148.011719 100.503906 C 152.925781 102.222656 156.734375 103.453125 157.964844 103.945313 C 160.546875 105.050781 162.144531 105.785156 162.144531 108 C 162.144531 110.582031 159.070313 111.6875 156.246094 111.808594 C 152.1875 111.6875 148.011719 109.71875 148.132813 105.539063 L 140.882813 105.539063 C 140.636719 101.855469 139.53125 98.660156 137.316406 96.078125 "/>
</g>
</svg>
