<?xml version="1.0" encoding="UTF-8"?>
<svg xmlns="http://www.w3.org/2000/svg" xmlns:xlink="http://www.w3.org/1999/xlink" viewBox="0 0 150 150" width="150px" height="150px">
<g id="surface68307327">
<path style=" stroke:none;fill-rule:evenodd;fill:rgb(90.588236%,29.803923%,23.529412%);fill-opacity:1;" d="M 114.527344 75.058594 C 116.578125 76.804688 119.109375 78.292969 121.886719 79.160156 C 126.46875 80.894531 129.84375 81.890625 131.050781 82.511719 C 133.347656 83.507812 134.800781 84.117188 134.800781 86.226562 C 134.800781 88.59375 132.023438 89.578125 129.363281 89.707031 C 125.625 89.707031 121.886719 87.84375 122.003906 83.871094 L 115.371094 83.871094 C 115.242188 80.519531 114.164062 77.414062 112.113281 75.058594 C 110.179688 72.703125 107.285156 70.839844 103.183594 69.726562 C 99.070312 68.355469 93.410156 66.867188 91.113281 66.117188 C 89.542969 65.625 88.933594 64.628906 88.933594 63.398438 C 88.933594 61.652344 90.984375 60.539062 93.398438 60.410156 C 97.511719 60.539062 98.589844 62.894531 98.835938 64.640625 L 108.84375 64.640625 C 109.335938 68.730469 111.386719 72.328125 114.527344 75.058594 Z M 38.015625 73.453125 C 36.082031 71.835938 33.667969 70.59375 30.527344 69.726562 C 26.425781 68.355469 20.753906 66.867188 18.46875 66.128906 C 16.898438 65.636719 16.289062 64.640625 16.289062 63.398438 C 16.289062 61.664062 18.339844 60.539062 20.753906 60.421875 C 24.855469 60.539062 25.945312 62.90625 26.191406 64.640625 L 38.015625 64.640625 Z M 52.617188 60.914062 L 60.339844 60.914062 C 63.351562 60.914062 65.765625 63.398438 65.765625 66.621094 C 65.765625 69.726562 63.351562 72.199219 60.339844 72.199219 L 52.617188 72.199219 Z M 52.617188 84.621094 L 61.183594 84.621094 C 68.789062 84.492188 74.8125 80.648438 77.835938 75.058594 C 78.070312 74.566406 78.316406 74.191406 78.433594 73.699219 C 78.925781 74.191406 79.40625 74.566406 79.886719 75.058594 C 81.9375 76.804688 84.46875 78.292969 87.363281 79.160156 C 91.828125 80.894531 95.332031 81.890625 96.539062 82.511719 C 98.835938 83.507812 100.277344 84.117188 100.277344 86.226562 C 100.277344 88.59375 97.511719 89.578125 94.851562 89.707031 C 91.113281 89.707031 87.363281 87.84375 87.492188 83.871094 L 72.644531 83.871094 C 73.371094 94.054688 83.144531 101.871094 94.605469 102 C 101.484375 102 107.882812 99.890625 112.101562 94.675781 C 116.085938 99.140625 121.042969 101.871094 127.792969 102 C 138.65625 101.871094 149.601562 96.410156 149.835938 84.609375 C 149.835938 80.894531 148.910156 77.671875 146.742188 75.058594 C 144.691406 72.703125 141.796875 70.839844 137.695312 69.726562 C 133.582031 68.355469 127.921875 66.867188 125.625 66.117188 C 124.171875 65.625 123.457031 64.628906 123.457031 63.398438 C 123.457031 61.652344 125.507812 60.539062 127.921875 60.410156 C 132.023438 60.539062 133.230469 62.894531 133.464844 64.640625 L 147.46875 64.640625 C 147.585938 54.703125 139.5 48 127.921875 48 C 119.34375 48 113.554688 51.351562 110.660156 56.191406 C 107.519531 51.105469 101.25 48 93.398438 48 C 85.078125 48 79.40625 51.222656 76.511719 55.816406 C 73.136719 51.351562 67.453125 48 60.820312 48 L 38.015625 48 L 38.015625 56.074219 C 34.757812 51.105469 28.59375 48 20.753906 48 C 8.8125 48 1.628906 54.621094 1.570312 62.648438 C 1.523438 69.058594 3.855469 71.835938 7.359375 75.058594 C 9.410156 76.804688 11.953125 78.292969 14.71875 79.160156 C 19.183594 80.894531 22.6875 81.890625 23.894531 82.511719 C 26.191406 83.507812 27.632812 84.117188 27.632812 86.226562 C 27.632812 88.59375 24.855469 89.578125 22.207031 89.707031 C 18.457031 89.707031 14.882812 87.972656 15 84 L 0.199219 84.023438 C 0.914062 94.195312 10.5 101.882812 21.960938 102 C 28.113281 102 34.03125 100.136719 38.015625 96.410156 L 38.015625 102 L 52.617188 102 Z M 52.617188 84.621094 "/>
</g>
</svg>
