<?xml version="1.0" standalone="yes"?>
<svg xmlns="http://www.w3.org/2000/svg" width="300" height="300">
<path style="fill:#ffffff; stroke:none;" d="M0 0L0 300L300 300L300 0L0 0z"/>
<path style="fill:#274571; stroke:none;" d="M149 34L150 35L149 34z"/>
<path style="fill:#627898; stroke:none;" d="M150 34L151 35L150 34M147 35L148 36L147 35z"/>
<path style="fill:#012359; stroke:none;" d="M107 59L138 77.7191L151 83.2886L164 76.7191L193 60L162 41.1505L149 35.5509L136 42.1505L107 59z"/>
<path style="fill:#627898; stroke:none;" d="M152 35L153 36L152 35z"/>
<path style="fill:#a2afc2; stroke:none;" d="M145 36L146 37L145 36z"/>
<path style="fill:#274571; stroke:none;" d="M153 36L154 37L153 36z"/>
<path style="fill:#a2afc2; stroke:none;" d="M154 36L155 37L154 36M143 37L144 38L143 37z"/>
<path style="fill:#274571; stroke:none;" d="M144 37L145 38L144 37M155 37L156 38L155 37z"/>
<path style="fill:#a2afc2; stroke:none;" d="M156 37L157 38L156 37z"/>
<path style="fill:#274571; stroke:none;" d="M142 38L143 39L142 38z"/>
<path style="fill:#627898; stroke:none;" d="M157 38L158 39L157 38M140 39L141 40L140 39M159 39L160 40L159 39z"/>
<path style="fill:#a2afc2; stroke:none;" d="M138 40L139 41L138 40z"/>
<path style="fill:#274571; stroke:none;" d="M160 40L161 41L160 40z"/>
<path style="fill:#a2afc2; stroke:none;" d="M161 40L162 41L161 40M136 41L137 42L136 41z"/>
<path style="fill:#274571; stroke:none;" d="M137 41L138 42L137 41M162 41L163 42L162 41z"/>
<path style="fill:#a2afc2; stroke:none;" d="M163 41L164 42L163 41z"/>
<path style="fill:#274571; stroke:none;" d="M135 42L136 43L135 42z"/>
<path style="fill:#627898; stroke:none;" d="M164 42L165 43L164 42M133 43L134 44L133 43M166 43L167 44L166 43z"/>
<path style="fill:#a2afc2; stroke:none;" d="M131 44L132 45L131 44z"/>
<path style="fill:#274571; stroke:none;" d="M167 44L168 45L167 44z"/>
<path style="fill:#a2afc2; stroke:none;" d="M168 44L169 45L168 44M129 45L130 46L129 45z"/>
<path style="fill:#274571; stroke:none;" d="M130 45L131 46L130 45M169 45L170 46L169 45z"/>
<path style="fill:#a2afc2; stroke:none;" d="M170 45L171 46L170 45z"/>
<path style="fill:#627898; stroke:none;" d="M128 46L129 47L128 46M171 46L172 47L171 46M126 47L127 48L126 47M173 47L174 48L173 47z"/>
<path style="fill:#a2afc2; stroke:none;" d="M124 48L125 49L124 48z"/>
<path style="fill:#274571; stroke:none;" d="M125 48L126 49L125 48M174 48L175 49L174 48z"/>
<path style="fill:#a2afc2; stroke:none;" d="M175 48L176 49L175 48M122 49L123 50L122 49z"/>
<path style="fill:#274571; stroke:none;" d="M123 49L124 50L123 49M176 49L177 50L176 49z"/>
<path style="fill:#627898; stroke:none;" d="M121 50L122 51L121 50M178 50L179 51L178 50M119 51L120 52L119 51M180 51L181 52L180 51z"/>
<path style="fill:#a2afc2; stroke:none;" d="M117 52L118 53L117 52z"/>
<path style="fill:#274571; stroke:none;" d="M118 52L119 53L118 52M181 52L182 53L181 52z"/>
<path style="fill:#a2afc2; stroke:none;" d="M182 52L183 53L182 52M115 53L116 54L115 53z"/>
<path style="fill:#274571; stroke:none;" d="M116 53L117 54L116 53M183 53L184 54L183 53z"/>
<path style="fill:#627898; stroke:none;" d="M114 54L115 55L114 54M185 54L186 55L185 54M112 55L113 56L112 55z"/>
<path style="fill:#274571; stroke:none;" d="M186 55L187 56L186 55z"/>
<path style="fill:#627898; stroke:none;" d="M187 55L188 56L187 55z"/>
<path style="fill:#a2afc2; stroke:none;" d="M110 56L111 57L110 56z"/>
<path style="fill:#274571; stroke:none;" d="M111 56L112 57L111 56M188 56L189 57L188 56z"/>
<path style="fill:#a2afc2; stroke:none;" d="M189 56L190 57L189 56M108 57L109 58L108 57z"/>
<path style="fill:#274571; stroke:none;" d="M109 57L110 58L109 57M190 57L191 58L190 57z"/>
<path style="fill:#627898; stroke:none;" d="M107 58L108 59L107 58M192 58L193 59L192 58z"/>
<path style="fill:#274571; stroke:none;" d="M106 59L107 60L106 59M193 59L194 60L193 59z"/>
<path style="fill:#a2afc2; stroke:none;" d="M107 60L108 61L107 60z"/>
<path style="fill:#274571; stroke:none;" d="M108 60L109 61L108 60z"/>
<path style="fill:#a2afc2; stroke:none;" d="M192 60L193 61L192 60z"/>
<path style="fill:#627898; stroke:none;" d="M109 61L110 62L109 61M190 61L191 62L190 61M111 62L112 63L111 62z"/>
<path style="fill:#274571; stroke:none;" d="M188 62L189 63L188 62z"/>
<path style="fill:#a2afc2; stroke:none;" d="M189 62L190 63L189 62M112 63L113 64L112 63z"/>
<path style="fill:#274571; stroke:none;" d="M113 63L114 64L113 63M186 63L187 64L186 63z"/>
<path style="fill:#a2afc2; stroke:none;" d="M187 63L188 64L187 63M114 64L115 65L114 64z"/>
<path style="fill:#274571; stroke:none;" d="M115 64L116 65L115 64z"/>
<path style="fill:#627898; stroke:none;" d="M185 64L186 65L185 64M116 65L117 66L116 65M183 65L184 66L183 65z"/>
<path style="fill:#274571; stroke:none;" d="M118 66L119 67L118 66M181 66L182 67L181 66z"/>
<path style="fill:#a2afc2; stroke:none;" d="M182 66L183 67L182 66M119 67L120 68L119 67z"/>
<path style="fill:#274571; stroke:none;" d="M120 67L121 68L120 67M179 67L180 68L179 67z"/>
<path style="fill:#a2afc2; stroke:none;" d="M180 67L181 68L180 67z"/>
<path style="fill:#627898; stroke:none;" d="M121 68L122 69L121 68M178 68L179 69L178 68M123 69L124 70L123 69M176 69L177 70L176 69z"/>
<path style="fill:#274571; stroke:none;" d="M125 70L126 71L125 70M174 70L175 71L174 70z"/>
<path style="fill:#a2afc2; stroke:none;" d="M175 70L176 71L175 70M249 70L250 71L249 70z"/>
<path style="fill:#012359; stroke:none;" d="M50 71L50 171C50 180.141 46.1069 200.861 51.0278 208.61C53.3327 212.24 59.3829 214.348 63 216.421C72.3256 221.768 81.7029 227.029 91 232.424C104.302 240.145 117.698 247.704 131 255.424C136.231 258.461 142.924 264.263 149 265.137C155.998 266.144 167.094 256.639 173 253.281C191.043 243.022 208.956 232.54 227 222.281C233.071 218.829 245.176 214.589 248.972 208.61C253.893 200.861 250 180.141 250 171L250 71C225.531 82.4244 202.292 98.3091 179 111.989C171.62 116.324 158.616 127.439 150 127.652C141.536 127.862 128.194 116.236 121 112.011C97.4956 98.2062 74.117 83.7027 50 71z"/>
<path style="fill:#627898; stroke:none;" d="M51 71L52 72L51 71z"/>
<path style="fill:#a2afc2; stroke:none;" d="M126 71L127 72L126 71z"/>
<path style="fill:#274571; stroke:none;" d="M127 71L128 72L127 71M172 71L173 72L172 71z"/>
<path style="fill:#a2afc2; stroke:none;" d="M173 71L174 72L173 71z"/>
<path style="fill:#627898; stroke:none;" d="M248 71L249 72L248 71z"/>
<path style="fill:#274571; stroke:none;" d="M52 72L53 73L52 72z"/>
<path style="fill:#627898; stroke:none;" d="M53 72L54 73L53 72M128 72L129 73L128 72M171 72L172 73L171 72M246 72L247 73L246 72z"/>
<path style="fill:#274571; stroke:none;" d="M54 73L55 74L54 73z"/>
<path style="fill:#a2afc2; stroke:none;" d="M55 73L56 74L55 73z"/>
<path style="fill:#627898; stroke:none;" d="M130 73L131 74L130 73M169 73L170 74L169 73z"/>
<path style="fill:#a2afc2; stroke:none;" d="M244 73L245 74L244 73z"/>
<path style="fill:#274571; stroke:none;" d="M245 73L246 74L245 73z"/>
<path style="fill:#627898; stroke:none;" d="M56 74L57 75L56 74z"/>
<path style="fill:#274571; stroke:none;" d="M132 74L133 75L132 74M167 74L168 75L167 74z"/>
<path style="fill:#a2afc2; stroke:none;" d="M168 74L169 75L168 74z"/>
<path style="fill:#274571; stroke:none;" d="M243 74L244 75L243 74z"/>
<path style="fill:#627898; stroke:none;" d="M58 75L59 76L58 75z"/>
<path style="fill:#a2afc2; stroke:none;" d="M133 75L134 76L133 75z"/>
<path style="fill:#274571; stroke:none;" d="M134 75L135 76L134 75z"/>
<path style="fill:#a2afc2; stroke:none;" d="M166 75L167 76L166 75z"/>
<path style="fill:#627898; stroke:none;" d="M241 75L242 76L241 75z"/>
<path style="fill:#274571; stroke:none;" d="M59 76L60 77L59 76z"/>
<path style="fill:#a2afc2; stroke:none;" d="M60 76L61 77L60 76z"/>
<path style="fill:#627898; stroke:none;" d="M135 76L136 77L135 76M164 76L165 77L164 76z"/>
<path style="fill:#a2afc2; stroke:none;" d="M239 76L240 77L239 76z"/>
<path style="fill:#274571; stroke:none;" d="M61 77L62 78L61 77z"/>
<path style="fill:#a2afc2; stroke:none;" d="M62 77L63 78L62 77z"/>
<path style="fill:#627898; stroke:none;" d="M137 77L138 78L137 77M162 77L163 78L162 77z"/>
<path style="fill:#a2afc2; stroke:none;" d="M237 77L238 78L237 77z"/>
<path style="fill:#274571; stroke:none;" d="M238 77L239 78L238 77z"/>
<path style="fill:#627898; stroke:none;" d="M63 78L64 79L63 78z"/>
<path style="fill:#a2afc2; stroke:none;" d="M138 78L139 79L138 78z"/>
<path style="fill:#274571; stroke:none;" d="M139 78L140 79L139 78M160 78L161 79L160 78z"/>
<path style="fill:#a2afc2; stroke:none;" d="M161 78L162 79L161 78z"/>
<path style="fill:#627898; stroke:none;" d="M236 78L237 79L236 78M65 79L66 80L65 79z"/>
<path style="fill:#a2afc2; stroke:none;" d="M140 79L141 80L140 79z"/>
<path style="fill:#274571; stroke:none;" d="M141 79L142 80L141 79z"/>
<path style="fill:#a2afc2; stroke:none;" d="M159 79L160 80L159 79z"/>
<path style="fill:#627898; stroke:none;" d="M234 79L235 80L234 79z"/>
<path style="fill:#274571; stroke:none;" d="M66 80L67 81L66 80z"/>
<path style="fill:#a2afc2; stroke:none;" d="M67 80L68 81L67 80z"/>
<path style="fill:#627898; stroke:none;" d="M142 80L143 81L142 80M157 80L158 81L157 80z"/>
<path style="fill:#a2afc2; stroke:none;" d="M232 80L233 81L232 80z"/>
<path style="fill:#274571; stroke:none;" d="M233 80L234 81L233 80z"/>
<path style="fill:#627898; stroke:none;" d="M68 81L69 82L68 81M144 81L145 82L144 81z"/>
<path style="fill:#274571; stroke:none;" d="M155 81L156 82L155 81z"/>
<path style="fill:#a2afc2; stroke:none;" d="M230 81L231 82L230 81z"/>
<path style="fill:#274571; stroke:none;" d="M231 81L232 82L231 81z"/>
<path style="fill:#627898; stroke:none;" d="M70 82L71 83L70 82z"/>
<path style="fill:#a2afc2; stroke:none;" d="M145 82L146 83L145 82z"/>
<path style="fill:#274571; stroke:none;" d="M146 82L147 83L146 82M153 82L154 83L153 82z"/>
<path style="fill:#a2afc2; stroke:none;" d="M154 82L155 83L154 82z"/>
<path style="fill:#627898; stroke:none;" d="M229 82L230 83L229 82z"/>
<path style="fill:#274571; stroke:none;" d="M71 83L72 84L71 83z"/>
<path style="fill:#a2afc2; stroke:none;" d="M72 83L73 84L72 83M147 83L148 84L147 83z"/>
<path style="fill:#274571; stroke:none;" d="M148 83L149 84L148 83z"/>
<path style="fill:#a2afc2; stroke:none;" d="M152 83L153 84L152 83M227 83L228 84L227 83z"/>
<path style="fill:#274571; stroke:none;" d="M73 84L74 85L73 84z"/>
<path style="fill:#a2afc2; stroke:none;" d="M74 84L75 85L74 84z"/>
<path style="fill:#627898; stroke:none;" d="M149.667 84.3333L150.333 84.6667L149.667 84.3333z"/>
<path style="fill:#a2afc2; stroke:none;" d="M225 84L226 85L225 84z"/>
<path style="fill:#274571; stroke:none;" d="M226 84L227 85L226 84z"/>
<path style="fill:#627898; stroke:none;" d="M75 85L76 86L75 85M224 85L225 86L224 85M77 86L78 87L77 86M222 86L223 87L222 86z"/>
<path style="fill:#274571; stroke:none;" d="M78 87L79 88L78 87z"/>
<path style="fill:#a2afc2; stroke:none;" d="M79 87L80 88L79 87M220 87L221 88L220 87z"/>
<path style="fill:#274571; stroke:none;" d="M221 87L222 88L221 87M80 88L81 89L80 88z"/>
<path style="fill:#a2afc2; stroke:none;" d="M218 88L219 89L218 88z"/>
<path style="fill:#274571; stroke:none;" d="M219 88L220 89L219 88z"/>
<path style="fill:#627898; stroke:none;" d="M82 89L83 90L82 89M217 89L218 90L217 89z"/>
<path style="fill:#274571; stroke:none;" d="M83 90L84 91L83 90z"/>
<path style="fill:#a2afc2; stroke:none;" d="M84 90L85 91L84 90M215 90L216 91L215 90z"/>
<path style="fill:#274571; stroke:none;" d="M85 91L86 92L85 91z"/>
<path style="fill:#a2afc2; stroke:none;" d="M86 91L87 92L86 91M213 91L214 92L213 91z"/>
<path style="fill:#274571; stroke:none;" d="M214 91L215 92L214 91z"/>
<path style="fill:#627898; stroke:none;" d="M87 92L88 93L87 92z"/>
<path style="fill:#274571; stroke:none;" d="M212 92L213 93L212 92z"/>
<path style="fill:#627898; stroke:none;" d="M89 93L90 94L89 93M210 93L211 94L210 93z"/>
<path style="fill:#274571; stroke:none;" d="M90 94L91 95L90 94z"/>
<path style="fill:#a2afc2; stroke:none;" d="M91 94L92 95L91 94M208 94L209 95L208 94z"/>
<path style="fill:#274571; stroke:none;" d="M92 95L93 96L92 95z"/>
<path style="fill:#a2afc2; stroke:none;" d="M206 95L207 96L206 95z"/>
<path style="fill:#274571; stroke:none;" d="M207 95L208 96L207 95z"/>
<path style="fill:#627898; stroke:none;" d="M94 96L95 97L94 96M205 96L206 97L205 96z"/>
<path style="fill:#274571; stroke:none;" d="M95 97L96 98L95 97z"/>
<path style="fill:#627898; stroke:none;" d="M96 97L97 98L96 97M203 97L204 98L203 97z"/>
<path style="fill:#274571; stroke:none;" d="M97 98L98 99L97 98z"/>
<path style="fill:#a2afc2; stroke:none;" d="M98 98L99 99L98 98M201 98L202 99L201 98z"/>
<path style="fill:#274571; stroke:none;" d="M202 98L203 99L202 98z"/>
<path style="fill:#627898; stroke:none;" d="M99 99L100 100L99 99z"/>
<path style="fill:#274571; stroke:none;" d="M200 99L201 100L200 99z"/>
<path style="fill:#627898; stroke:none;" d="M101 100L102 101L101 100M198 100L199 101L198 100z"/>
<path style="fill:#274571; stroke:none;" d="M102 101L103 102L102 101z"/>
<path style="fill:#a2afc2; stroke:none;" d="M103 101L104 102L103 101M196 101L197 102L196 101z"/>
<path style="fill:#274571; stroke:none;" d="M104 102L105 103L104 102z"/>
<path style="fill:#a2afc2; stroke:none;" d="M105 102L106 103L105 102M194 102L195 103L194 102z"/>
<path style="fill:#274571; stroke:none;" d="M195 102L196 103L195 102z"/>
<path style="fill:#627898; stroke:none;" d="M106 103L107 104L106 103M193 103L194 104L193 103M108 104L109 105L108 104M191 104L192 105L191 104z"/>
<path style="fill:#274571; stroke:none;" d="M109 105L110 106L109 105z"/>
<path style="fill:#a2afc2; stroke:none;" d="M110 105L111 106L110 105M189 105L190 106L189 105z"/>
<path style="fill:#274571; stroke:none;" d="M190 105L191 106L190 105z"/>
<path style="fill:#627898; stroke:none;" d="M111 106L112 107L111 106z"/>
<path style="fill:#a2afc2; stroke:none;" d="M187 106L188 107L187 106z"/>
<path style="fill:#274571; stroke:none;" d="M188 106L189 107L188 106z"/>
<path style="fill:#627898; stroke:none;" d="M113 107L114 108L113 107M186 107L187 108L186 107z"/>
<path style="fill:#274571; stroke:none;" d="M114 108L115 109L114 108z"/>
<path style="fill:#a2afc2; stroke:none;" d="M115 108L116 109L115 108M184 108L185 109L184 108z"/>
<path style="fill:#274571; stroke:none;" d="M116 109L117 110L116 109z"/>
<path style="fill:#a2afc2; stroke:none;" d="M117 109L118 110L117 109M182 109L183 110L182 109z"/>
<path style="fill:#274571; stroke:none;" d="M183 109L184 110L183 109z"/>
<path style="fill:#627898; stroke:none;" d="M118 110L119 111L118 110M181 110L182 111L181 110M120 111L121 112L120 111M179 111L180 112L179 111z"/>
<path style="fill:#274571; stroke:none;" d="M121 112L122 113L121 112z"/>
<path style="fill:#a2afc2; stroke:none;" d="M122 112L123 113L122 112M177 112L178 113L177 112z"/>
<path style="fill:#274571; stroke:none;" d="M178 112L179 113L178 112M123 113L124 114L123 113z"/>
<path style="fill:#a2afc2; stroke:none;" d="M175 113L176 114L175 113z"/>
<path style="fill:#274571; stroke:none;" d="M176 113L177 114L176 113z"/>
<path style="fill:#627898; stroke:none;" d="M125 114L126 115L125 114M174 114L175 115L174 114z"/>
<path style="fill:#274571; stroke:none;" d="M126 115L127 116L126 115z"/>
<path style="fill:#a2afc2; stroke:none;" d="M127 115L128 116L127 115M172 115L173 116L172 115z"/>
<path style="fill:#274571; stroke:none;" d="M128 116L129 117L128 116z"/>
<path style="fill:#a2afc2; stroke:none;" d="M129 116L130 117L129 116M170 116L171 117L170 116z"/>
<path style="fill:#274571; stroke:none;" d="M171 116L172 117L171 116z"/>
<path style="fill:#627898; stroke:none;" d="M130 117L131 118L130 117z"/>
<path style="fill:#274571; stroke:none;" d="M169 117L170 118L169 117z"/>
<path style="fill:#627898; stroke:none;" d="M132 118L133 119L132 118M167 118L168 119L167 118z"/>
<path style="fill:#274571; stroke:none;" d="M133 119L134 120L133 119z"/>
<path style="fill:#a2afc2; stroke:none;" d="M134 119L135 120L134 119M165 119L166 120L165 119z"/>
<path style="fill:#274571; stroke:none;" d="M135 120L136 121L135 120z"/>
<path style="fill:#a2afc2; stroke:none;" d="M163 120L164 121L163 120z"/>
<path style="fill:#274571; stroke:none;" d="M164 120L165 121L164 120z"/>
<path style="fill:#627898; stroke:none;" d="M137 121L138 122L137 121M162 121L163 122L162 121z"/>
<path style="fill:#274571; stroke:none;" d="M138 122L139 123L138 122z"/>
<path style="fill:#627898; stroke:none;" d="M139 122L140 123L139 122M160 122L161 123L160 122z"/>
<path style="fill:#274571; stroke:none;" d="M140 123L141 124L140 123z"/>
<path style="fill:#a2afc2; stroke:none;" d="M141 123L142 124L141 123M158 123L159 124L158 123z"/>
<path style="fill:#274571; stroke:none;" d="M159 123L160 124L159 123z"/>
<path style="fill:#627898; stroke:none;" d="M142 124L143 125L142 124z"/>
<path style="fill:#274571; stroke:none;" d="M157 124L158 125L157 124z"/>
<path style="fill:#627898; stroke:none;" d="M144 125L145 126L144 125M155 125L156 126L155 125z"/>
<path style="fill:#274571; stroke:none;" d="M145 126L146 127L145 126z"/>
<path style="fill:#a2afc2; stroke:none;" d="M146 126L147 127L146 126M153 126L154 127L153 126z"/>
<path style="fill:#274571; stroke:none;" d="M147 127L148 128L147 127z"/>
<path style="fill:#a2afc2; stroke:none;" d="M148 127L149 128L148 127M151 127L152 128L151 127z"/>
<path style="fill:#274571; stroke:none;" d="M152 127L153 128L152 127z"/>
<path style="fill:#627898; stroke:none;" d="M149.667 128.333L150.333 128.667L149.667 128.333M50 209L51 210L50 209M249 209L250 210L249 209M52 210L53 211L52 210M247 210L248 211L247 210z"/>
<path style="fill:#274571; stroke:none;" d="M54 211L55 212L54 211M245 211L246 212L245 211z"/>
<path style="fill:#a2afc2; stroke:none;" d="M246 211L247 212L246 211M55 212L56 213L55 212z"/>
<path style="fill:#274571; stroke:none;" d="M56 212L57 213L56 212M243 212L244 213L243 212z"/>
<path style="fill:#a2afc2; stroke:none;" d="M244 212L245 213L244 212z"/>
<path style="fill:#627898; stroke:none;" d="M57 213L58 214L57 213M242 213L243 214L242 213M59 214L60 215L59 214M240 214L241 215L240 214z"/>
<path style="fill:#a2afc2; stroke:none;" d="M60 215L61 216L60 215z"/>
<path style="fill:#274571; stroke:none;" d="M61 215L62 216L61 215M238 215L239 216L238 215z"/>
<path style="fill:#a2afc2; stroke:none;" d="M239 215L240 216L239 215M62 216L63 217L62 216z"/>
<path style="fill:#274571; stroke:none;" d="M63 216L64 217L63 216z"/>
<path style="fill:#a2afc2; stroke:none;" d="M237 216L238 217L237 216z"/>
<path style="fill:#627898; stroke:none;" d="M64 217L65 218L64 217M235 217L236 218L235 217M66 218L67 219L66 218z"/>
<path style="fill:#274571; stroke:none;" d="M233 218L234 219L233 218z"/>
<path style="fill:#a2afc2; stroke:none;" d="M67 219L68 220L67 219z"/>
<path style="fill:#274571; stroke:none;" d="M68 219L69 220L68 219M231 219L232 220L231 219z"/>
<path style="fill:#a2afc2; stroke:none;" d="M232 219L233 220L232 219M69 220L70 221L69 220z"/>
<path style="fill:#274571; stroke:none;" d="M70 220L71 221L70 220z"/>
<path style="fill:#a2afc2; stroke:none;" d="M230 220L231 221L230 220z"/>
<path style="fill:#627898; stroke:none;" d="M71 221L72 222L71 221M228 221L229 222L228 221M73 222L74 223L73 222z"/>
<path style="fill:#274571; stroke:none;" d="M226 222L227 223L226 222z"/>
<path style="fill:#a2afc2; stroke:none;" d="M74 223L75 224L74 223z"/>
<path style="fill:#274571; stroke:none;" d="M75 223L76 224L75 223M224 223L225 224L224 223z"/>
<path style="fill:#a2afc2; stroke:none;" d="M225 223L226 224L225 223M76 224L77 225L76 224z"/>
<path style="fill:#274571; stroke:none;" d="M77 224L78 225L77 224z"/>
<path style="fill:#a2afc2; stroke:none;" d="M223 224L224 225L223 224z"/>
<path style="fill:#627898; stroke:none;" d="M78 225L79 226L78 225M221 225L222 226L221 225M80 226L81 227L80 226z"/>
<path style="fill:#274571; stroke:none;" d="M219 226L220 227L219 226z"/>
<path style="fill:#a2afc2; stroke:none;" d="M81 227L82 228L81 227z"/>
<path style="fill:#274571; stroke:none;" d="M82 227L83 228L82 227M217 227L218 228L217 227z"/>
<path style="fill:#a2afc2; stroke:none;" d="M218 227L219 228L218 227M83 228L84 229L83 228z"/>
<path style="fill:#274571; stroke:none;" d="M84 228L85 229L84 228z"/>
<path style="fill:#627898; stroke:none;" d="M216 228L217 229L216 228M85 229L86 230L85 229M214 229L215 230L214 229z"/>
<path style="fill:#274571; stroke:none;" d="M87 230L88 231L87 230M212 230L213 231L212 230z"/>
<path style="fill:#a2afc2; stroke:none;" d="M213 230L214 231L213 230M88 231L89 232L88 231z"/>
<path style="fill:#274571; stroke:none;" d="M89 231L90 232L89 231M210 231L211 232L210 231z"/>
<path style="fill:#a2afc2; stroke:none;" d="M211 231L212 232L211 231z"/>
<path style="fill:#627898; stroke:none;" d="M90 232L91 233L90 232z"/>
<path style="fill:#274571; stroke:none;" d="M91 232L92 233L91 232z"/>
<path style="fill:#627898; stroke:none;" d="M209 232L210 233L209 232M92 233L93 234L92 233M207 233L208 234L207 233z"/>
<path style="fill:#274571; stroke:none;" d="M94 234L95 235L94 234M205 234L206 235L205 234z"/>
<path style="fill:#a2afc2; stroke:none;" d="M206 234L207 235L206 234M95 235L96 236L95 235z"/>
<path style="fill:#274571; stroke:none;" d="M96 235L97 236L96 235M203 235L204 236L203 235z"/>
<path style="fill:#a2afc2; stroke:none;" d="M204 235L205 236L204 235z"/>
<path style="fill:#627898; stroke:none;" d="M97 236L98 237L97 236M202 236L203 237L202 236M99 237L100 238L99 237M200 237L201 238L200 237z"/>
<path style="fill:#274571; stroke:none;" d="M101 238L102 239L101 238M198 238L199 239L198 238z"/>
<path style="fill:#a2afc2; stroke:none;" d="M199 238L200 239L199 238M102 239L103 240L102 239z"/>
<path style="fill:#274571; stroke:none;" d="M103 239L104 240L103 239M196 239L197 240L196 239z"/>
<path style="fill:#a2afc2; stroke:none;" d="M197 239L198 240L197 239z"/>
<path style="fill:#627898; stroke:none;" d="M104 240L105 241L104 240M195 240L196 241L195 240M106 241L107 242L106 241M193 241L194 242L193 241z"/>
<path style="fill:#a2afc2; stroke:none;" d="M107 242L108 243L107 242z"/>
<path style="fill:#274571; stroke:none;" d="M108 242L109 243L108 242M191 242L192 243L191 242z"/>
<path style="fill:#a2afc2; stroke:none;" d="M192 242L193 243L192 242M109 243L110 244L109 243z"/>
<path style="fill:#274571; stroke:none;" d="M110 243L111 244L110 243z"/>
<path style="fill:#a2afc2; stroke:none;" d="M190 243L191 244L190 243z"/>
<path style="fill:#627898; stroke:none;" d="M111 244L112 245L111 244M188 244L189 245L188 244M113 245L114 246L113 245z"/>
<path style="fill:#274571; stroke:none;" d="M186 245L187 246L186 245z"/>
<path style="fill:#a2afc2; stroke:none;" d="M114 246L115 247L114 246z"/>
<path style="fill:#274571; stroke:none;" d="M115 246L116 247L115 246M184 246L185 247L184 246z"/>
<path style="fill:#a2afc2; stroke:none;" d="M185 246L186 247L185 246M116 247L117 248L116 247z"/>
<path style="fill:#274571; stroke:none;" d="M117 247L118 248L117 247z"/>
<path style="fill:#a2afc2; stroke:none;" d="M183 247L184 248L183 247z"/>
<path style="fill:#627898; stroke:none;" d="M118 248L119 249L118 248M181 248L182 249L181 248M120 249L121 250L120 249z"/>
<path style="fill:#274571; stroke:none;" d="M179 249L180 250L179 249z"/>
<path style="fill:#a2afc2; stroke:none;" d="M121 250L122 251L121 250z"/>
<path style="fill:#274571; stroke:none;" d="M122 250L123 251L122 250M177 250L178 251L177 250z"/>
<path style="fill:#a2afc2; stroke:none;" d="M178 250L179 251L178 250M123 251L124 252L123 251z"/>
<path style="fill:#274571; stroke:none;" d="M124 251L125 252L124 251z"/>
<path style="fill:#a2afc2; stroke:none;" d="M176 251L177 252L176 251z"/>
<path style="fill:#627898; stroke:none;" d="M125 252L126 253L125 252M174 252L175 253L174 252M127 253L128 254L127 253z"/>
<path style="fill:#274571; stroke:none;" d="M172 253L173 254L172 253z"/>
<path style="fill:#a2afc2; stroke:none;" d="M128 254L129 255L128 254z"/>
<path style="fill:#274571; stroke:none;" d="M129 254L130 255L129 254M170 254L171 255L170 254z"/>
<path style="fill:#a2afc2; stroke:none;" d="M171 254L172 255L171 254M130 255L131 256L130 255z"/>
<path style="fill:#274571; stroke:none;" d="M131 255L132 256L131 255z"/>
<path style="fill:#627898; stroke:none;" d="M169 255L170 256L169 255M132 256L133 257L132 256M167 256L168 257L167 256z"/>
<path style="fill:#274571; stroke:none;" d="M134 257L135 258L134 257M165 257L166 258L165 257z"/>
<path style="fill:#a2afc2; stroke:none;" d="M166 257L167 258L166 257M135 258L136 259L135 258z"/>
<path style="fill:#274571; stroke:none;" d="M136 258L137 259L136 258M163 258L164 259L163 258z"/>
<path style="fill:#a2afc2; stroke:none;" d="M164 258L165 259L164 258z"/>
<path style="fill:#627898; stroke:none;" d="M137 259L138 260L137 259M162 259L163 260L162 259M139 260L140 261L139 260M160 260L161 261L160 260z"/>
<path style="fill:#274571; stroke:none;" d="M141 261L142 262L141 261M158 261L159 262L158 261z"/>
<path style="fill:#a2afc2; stroke:none;" d="M159 261L160 262L159 261M142 262L143 263L142 262z"/>
<path style="fill:#274571; stroke:none;" d="M143 262L144 263L143 262M156 262L157 263L156 262z"/>
<path style="fill:#a2afc2; stroke:none;" d="M157 262L158 263L157 262z"/>
<path style="fill:#627898; stroke:none;" d="M144 263L145 264L144 263M155 263L156 264L155 263M146 264L147 265L146 264M153 264L154 265L153 264z"/>
<path style="fill:#274571; stroke:none;" d="M148 265L149 266L148 265M151 265L152 266L151 265z"/>
<path style="fill:#a2afc2; stroke:none;" d="M152 265L153 266L152 265M149.667 266.333L150.333 266.667L149.667 266.333z"/>
</svg>
