<?xml version="1.0" standalone="no"?>
<!DOCTYPE svg PUBLIC "-//W3C//DTD SVG 20010904//EN"
 "http://www.w3.org/TR/2001/REC-SVG-20010904/DTD/svg10.dtd">
<svg version="1.0" xmlns="http://www.w3.org/2000/svg"
 width="300.000000pt" height="300.000000pt" viewBox="0 0 300.000000 300.000000"
 preserveAspectRatio="xMidYMid meet">

<g transform="translate(0.000000,300.000000) scale(0.100000,-0.100000)"
fill="#000000" stroke="none">
<path d="M1921 2042 c-71 -19 -84 -33 -46 -50 14 -6 25 -20 25 -29 0 -10 -50
-163 -110 -341 -61 -178 -110 -336 -110 -352 0 -32 14 -40 71 -40 51 0 106 28
151 78 70 78 62 120 -10 50 -26 -25 -57 -51 -69 -57 -20 -10 -23 -9 -23 7 0
16 56 184 214 641 20 57 36 106 36 108 0 8 -71 0 -129 -15z"/>
<path d="M130 1625 l0 -385 70 0 70 0 2 308 3 307 34 -100 c19 -55 72 -192
117 -305 l82 -205 67 0 68 0 84 215 c46 118 99 260 118 315 l34 100 -6 -292
c-3 -160 -3 -303 1 -317 6 -25 10 -26 76 -26 l70 0 0 385 0 386 -121 -3 -121
-3 -50 -130 c-28 -71 -74 -197 -103 -280 -29 -82 -56 -143 -58 -135 -3 8 -13
40 -23 70 -19 62 -161 436 -175 463 -8 15 -25 17 -124 17 l-115 0 0 -385z"/>
<path d="M1343 1772 c-6 -4 -18 -25 -27 -47 -14 -36 -25 -44 -81 -69 -68 -30
-94 -51 -79 -66 5 -5 29 0 57 12 26 11 50 18 54 14 9 -8 -187 -562 -212 -600
-14 -20 -34 -34 -58 -40 -20 -5 -37 -15 -37 -23 0 -10 20 -13 83 -12 180 3
274 23 189 40 -19 4 -38 11 -44 17 -11 11 6 78 43 177 l19 52 69 5 c117 9 222
85 277 203 29 61 32 143 7 186 -22 38 -87 69 -142 69 l-43 0 7 39 c6 34 4 39
-17 45 -30 8 -50 7 -65 -2z m137 -160 c25 -32 25 -73 0 -156 -21 -67 -65 -135
-112 -169 -31 -23 -73 -17 -81 12 -2 11 19 86 49 168 30 81 54 153 54 160 0
13 27 21 53 15 9 -3 26 -16 37 -30z"/>
<path d="M2133 1691 c-59 -27 -151 -117 -135 -133 9 -9 19 -5 44 19 18 17 43
36 56 42 33 17 30 0 -33 -163 -72 -186 -72 -226 0 -226 43 0 108 44 193 133
39 41 72 72 72 69 0 -3 -14 -42 -32 -88 -35 -93 -31 -114 24 -114 60 0 208
104 208 146 0 24 -20 16 -67 -26 -43 -37 -73 -51 -73 -32 0 7 70 190 120 316
24 58 15 76 -35 76 -31 0 -36 -5 -80 -87 -62 -115 -121 -197 -183 -255 -48
-45 -82 -61 -82 -38 0 5 27 76 59 157 75 187 75 187 56 207 -22 21 -60 20
-112 -3z"/>
<path d="M2735 1693 c-69 -36 -105 -88 -105 -151 0 -36 8 -51 83 -161 20 -30
19 -70 -4 -84 -23 -14 -59 -2 -98 33 -40 35 -43 36 -64 12 -24 -26 -21 -59 8
-87 48 -49 178 -22 226 47 50 70 43 135 -26 224 -47 61 -56 97 -28 113 22 12
60 -2 95 -36 27 -26 28 -26 48 -8 28 25 25 51 -9 86 -34 33 -78 38 -126 12z"/>
</g>
</svg>
