<?xml version="1.0" standalone="yes"?>
<svg xmlns="http://www.w3.org/2000/svg" width="512" height="512">
<path style="fill:#010102; stroke:none;" d="M0 0L0 512L512 512L512 0L0 0z"/>
<path style="fill:#1f6db4; stroke:none;" d="M159 48L159 49L194 48C184.81 44.1436 168.745 46.7684 159 48z"/>
<path style="fill:#2696d5; stroke:none;" d="M137 50L118 51L118 53C109.888 51.6328 102.301 56.0047 95 59L97 60L97 61L90 62L92 64L87 64L87 65L89 66L84 66L81 69L82 72C77.1189 71.847 74.7522 74.1498 72 78L74 78C49.0403 110.131 50 147.034 50 186C50 239.928 51.6698 294.235 51 348C54.4208 347.316 53.0485 349.512 51 349L51 350L55 350L57 376L62 380L61 383L62 383C66.0437 378.936 75.0601 373.417 81 374L82 373L81 371L91 368L97 360L95 360L105.462 350.65L120 331L120 330L114 331L114 330L116 329L114 326L118 325L125 325L125 324L123 323C133.812 319.331 148.845 306.218 156.715 297.91C161.535 292.821 166.846 284.733 174 283L182 259L184 259L188 274L200 272L199 275C205.591 274.569 214.538 278.119 219 283L237 283L242 288L254 280L259 280L263 277L263 275L269 275L269 272L274 273L275 273C274.95 270.354 275.225 269.185 278 269L278 267L284 264L285 264L287 266L286 263L292 263L291 260L294 261L291 256L291 255L298 251L299 242L295 237L297 231L293 225L281 210L281 203L281 202L279 201L285 192L285 191L280 191L281 189L260 182L260 181C284.898 175.847 306.446 161.181 319.127 139C324.057 130.378 326.131 120.99 330 112C333.97 124.417 337.509 140.308 348 149L347 147L348 147L397 176.192L419 188L430 182L432 188L443 184L443 182L445 183L445 181L448 182L449 182L457 177L460.667 170.167L461 151C457.289 151 458.253 142.84 459 140C455.128 140 457.677 135.984 459 134L459 131L454 110C457.648 92.4826 435.197 83.2346 432 69L429 70L430 68L424 63L421 64L419 60C415.948 60.5086 410.341 58.635 411 56L401 55L400 52L362 48.0146L203 47.0008L155 48.0394L137 50z"/>
<path style="fill:#1f6db4; stroke:none;" d="M195 47L196 48L195 47M314 47L314 48L348 48L314 47M141 48L141 49L146 49L141 48M348 48L348 49L352 49L348 48M367 48L367 49L372 49L367 48M374 48L376 50L376 48L374 48M128 49L129 50L128 49M130.667 49.3333L131.333 49.6667L130.667 49.3333M136 49L137 50L136 49M380.667 49.3333L381.333 49.6667L380.667 49.3333M383 49L384 50L383 49z"/>
<path style="fill:#78ccec; stroke:none;" d="M121 50L122 51L121 50z"/>
<path style="fill:#1f6db4; stroke:none;" d="M124.667 50.3333L125.333 50.6667L124.667 50.3333M384 50L385 51L384 50M388.667 50.3333L389.333 50.6667L388.667 50.3333M116 51L117 52L116 51M119.667 51.3333L120.333 51.6667L119.667 51.3333M392 51L393 52L392 51z"/>
<path style="fill:#78ccec; stroke:none;" d="M395 51L396 52L395 51z"/>
<path style="fill:#1f6db4; stroke:none;" d="M114 52L115 53L114 52M117 52L118 53L117 52M396 52L397 53L396 52M400 53L401 54L400 53M402 53L403 54L402 53M401 54L402 55L401 54M403 54L404 55L403 54M405 54L406 55L405 54M404 55L405 56L404 55M406 55L407 56L406 55M101 57L102 58L101 57M410 57L411 58L410 57M412 57L413 58L412 57M99 58L100 59L99 58M413 58L415 60L415 58L413 58M416.333 59.6667L416.667 60.3333L416.333 59.6667M94 60L94 61L97 61L94 60M93 61L94 62L93 61z"/>
<path style="fill:#78ccec; stroke:none;" d="M419 61L420 62L419 61z"/>
<path style="fill:#1f6db4; stroke:none;" d="M92 62L93 63L92 62M421.333 62.6667L421.667 63.3333L421.333 62.6667M89 65L92 64L89 65M423 64L426 67L423 64M86 67L89 66L86 67z"/>
<path style="fill:#78ccec; stroke:none;" d="M425 65L426 66L425 65M85 66L86 67L85 66z"/>
<path style="fill:#1f6db4; stroke:none;" d="M426 67L429 69L428 66L426 67z"/>
<path style="fill:#010102; stroke:none;" d="M84 67L85 68L84 67z"/>
<path style="fill:#1f6db4; stroke:none;" d="M82 68L83 69L82 68M429 69L430 70L429 69z"/>
<path style="fill:#78ccec; stroke:none;" d="M430 69L431 70L430 69M80 70L79 72L80 70z"/>
<path style="fill:#1f6db4; stroke:none;" d="M81 70L80 72L82 72L81 70z"/>
<path style="fill:#010102; stroke:none;" d="M431 70L434 73L431 70z"/>
<path style="fill:#1f6db4; stroke:none;" d="M432 70L433 71L432 70M431 71L432 72L431 71M433 71L434 72L433 71z"/>
<path style="fill:#010102; stroke:none;" d="M78 72L74 77L78 72z"/>
<path style="fill:#1f6db4; stroke:none;" d="M432 72L433 73L432 72M434 72L435 73L434 72M433 73L434 74L433 73M434 74L434 75L437 77L434 74z"/>
<path style="fill:#010102; stroke:none;" d="M73 77L74 78L73 77z"/>
<path style="fill:#1f6db4; stroke:none;" d="M437 77L438 78L437 77M439 77L438 78L438 79L439 80L442 80L439 77z"/>
<path style="fill:#78ccec; stroke:none;" d="M72 78L73 79L72 78z"/>
<path style="fill:#1f6db4; stroke:none;" d="M73 78L70 83L71 83L73 78z"/>
<path style="fill:#010102; stroke:none;" d="M439 78L440 79L439 78M440 79L441 80L440 79z"/>
<path style="fill:#78ccec; stroke:none;" d="M441 80L442 81L441 80z"/>
<path style="fill:#1f6db4; stroke:none;" d="M441 81L442 84L443 84L443 81L441 81M68 84L69 85L68 84M443 84L444 85L443 84M445 84L446 85L445 84M67.3333 85.6667L67.6667 86.3333L67.3333 85.6667M444 85L445 86L444 85M65 86L66 87L65 86M66 87L67 88L66 87M445 87L446 88L445 87M65.3333 88.6667L65.6667 89.3333L65.3333 88.6667M446 88L447 89L446 88M447.333 89.6667L447.667 90.3333L447.333 89.6667M64 90L65 91L64 90M63.3333 91.6667L63.6667 92.3333L63.3333 91.6667M448.333 91.6667L448.667 92.3333L448.333 91.6667M449 93L450 94L449 93M62 94L63 95L62 94M450 94L451 95L450 94M61 95L62 96L61 95M60 97L61 98L60 97M451 97L452 98L451 97M59 99L60 100L59 99M452 99L453 100L452 99M453 100L453 103L454 103L453 100M58.3333 101.667L58.6667 102.333L58.3333 101.667M454 103L454 106L455 106L454 103M57.3333 104.667L57.6667 105.333L57.3333 104.667M56 106L56 109L57 109L56 106M455 106L454 110L456 112L457 112L455 106M55 109L55 112L56 112L55 109M453 110L454 111L453 110z"/>
<path style="fill:#78ccec; stroke:none;" d="M183 111L182 114L183 111M329 112L331 115L329 112z"/>
<path style="fill:#1f6db4; stroke:none;" d="M454.667 112.333L455.333 112.667L454.667 112.333M457 112C454.755 116.956 455.834 126.488 459 131C456.07 131.586 456.512 133.502 459 134C457.479 135.968 455.716 139.456 459 140C458.051 143.059 456.979 150.368 461 151L461 157L462 157C462 143.937 463.976 123.57 457 112M54 113L54 116L55 116L54 113z"/>
<path style="fill:#ebf7fc; stroke:none;" d="M182 114C177.245 146.2 145.989 176.276 114 181L114 182C145.773 190.95 176.831 214.002 182 249L184 249C188.85 216.159 219.888 189.198 251 182L251 181C228.652 175.83 208.506 162.371 196.09 143C191.264 135.47 188.661 119.048 182 114M329 114C322.113 147.277 294.788 173.415 262 181L262 182C293.055 190.813 323.983 215.031 329 249L330 249C343.077 214.846 361.306 193.417 397 182L397 181C374.215 175.729 353.464 161.148 341.453 141C336.58 132.826 334.858 121.123 329 114z"/>
<path style="fill:#78ccec; stroke:none;" d="M181 115L181 118L182 118L181 115M184.333 115.667L184.667 116.333L184.333 115.667M328.333 115.667L328.667 116.333L328.333 115.667z"/>
<path style="fill:#2696d5; stroke:none;" d="M457 115L458 116L457 115z"/>
<path style="fill:#1f6db4; stroke:none;" d="M53 116L54 117L53 116z"/>
<path style="fill:#78ccec; stroke:none;" d="M331 116L331 119L332 119L331 116z"/>
<path style="fill:#1f6db4; stroke:none;" d="M53.3333 118.667L53.6667 119.333L53.3333 118.667z"/>
<path style="fill:#78ccec; stroke:none;" d="M185 118L185 121L186 121L185 118z"/>
<path style="fill:#2696d5; stroke:none;" d="M457 118L458 119L457 118z"/>
<path style="fill:#78ccec; stroke:none;" d="M180.333 119.667L180.667 120.333L180.333 119.667M327.333 119.667L327.667 120.333L327.333 119.667M332.333 120.667L332.667 121.333L332.333 120.667z"/>
<path style="fill:#1f6db4; stroke:none;" d="M52 121L52 127L53 127L52 121z"/>
<path style="fill:#78ccec; stroke:none;" d="M186 121L186 124L187 124L186 121M179.333 122.667L179.667 123.333L179.333 122.667M326.333 122.667L326.667 123.333L326.333 122.667M333.333 123.667L333.667 124.333L333.333 123.667M187.333 124.667L187.667 125.333L187.333 124.667z"/>
<path style="fill:#1f6db4; stroke:none;" d="M456 124L457 125L456 124z"/>
<path style="fill:#78ccec; stroke:none;" d="M178 125L179 126L178 125M325 125L326 126L325 125M334 126L335 127L334 126z"/>
<path style="fill:#1f6db4; stroke:none;" d="M51 127L52 128L51 127z"/>
<path style="fill:#78ccec; stroke:none;" d="M177.333 127.667L177.667 128.333L177.333 127.667M188.333 127.667L188.667 128.333L188.333 127.667M324.333 127.667L324.667 128.333L324.333 127.667M335.333 128.667L335.667 129.333L335.333 128.667z"/>
<path style="fill:#2696d5; stroke:none;" d="M458 128L459 129L458 128z"/>
<path style="fill:#1f6db4; stroke:none;" d="M51 129L51 134L52 134L51 129z"/>
<path style="fill:#78ccec; stroke:none;" d="M189.333 129.667L189.667 130.333L189.333 129.667M176 130L177 131L176 130M323 130L324 131L323 130M336 131L337 132L336 131M175 132L176 133L175 132M190 132L191 133L190 132M322 132L323 133L322 132M337 133L338 134L337 133M174.333 134.667L174.667 135.333L174.333 134.667M191 134L192 135L191 134M321 134L322 135L321 134M338 135L339 136L338 135M173.333 136.667L173.667 137.333L173.333 136.667M192 136L193 137L192 136M320 136L321 137L320 136z"/>
<path style="fill:#1f6db4; stroke:none;" d="M50.3333 137.667L50.6667 138.333L50.3333 137.667z"/>
<path style="fill:#78ccec; stroke:none;" d="M339 137L340 138L339 137M172 138L173 139L172 138M193 138L194 139L193 138M319 138L320 139L319 138M340 139L341 140L340 139z"/>
<path style="fill:#1f6db4; stroke:none;" d="M50 140L50 146L51 146L50 140z"/>
<path style="fill:#78ccec; stroke:none;" d="M171 140L172 141L171 140M194 140L195 141L194 140M318 140L319 141L318 140M341.333 140.667L341.667 141.333L341.333 140.667M170.333 141.667L170.667 142.333L170.333 141.667M195.333 141.667L195.667 142.333L195.333 141.667M317.333 141.667L317.667 142.333L317.333 141.667M342 142L343 143L342 142M169 143L170 144L169 143M196 143L197 144L196 143M316 143L317 144L316 143z"/>
<path style="fill:#2696d5; stroke:none;" d="M460 143L461 144L460 143z"/>
<path style="fill:#78ccec; stroke:none;" d="M168.333 144.667L168.667 145.333L168.333 144.667M197.333 144.667L197.667 145.333L197.333 144.667M315.333 144.667L315.667 145.333L315.333 144.667M343 144L344 145L343 144z"/>
<path style="fill:#1f6db4; stroke:none;" d="M345 144L346 145L345 144z"/>
<path style="fill:#78ccec; stroke:none;" d="M344 145L345 146L344 145M167 146L168 147L167 146M198 146L199 147L198 146M314 146L315 147L314 146z"/>
<path style="fill:#1f6db4; stroke:none;" d="M346 146L347 147L346 146z"/>
<path style="fill:#78ccec; stroke:none;" d="M166.333 147.667L166.667 148.333L166.333 147.667M199 147L200 148L199 147M313 147L314 148L313 147M345 147L346 148L345 147z"/>
<path style="fill:#1f6db4; stroke:none;" d="M347 147C353.693 160.11 367.975 168.821 381 174.688C387.158 177.462 395.337 177.95 400 183C366.149 185.765 335.445 218.015 331 251C325.968 245.793 324.91 236.545 321.742 230C313.867 213.735 300.116 196.229 282 191L281 202L281 203L279 204L281 210L293 225C293.157 227.949 293.906 230.567 297 231L295 237L299 242C295.375 243.915 296.277 247.87 298 251L291 255L291 256L294 261L291 260L292 263L286 263L287 266L285 264L284 264L278 267L278 269C275.108 269.313 274.928 270.077 275 273L274 273L269 272L268 273L269 275L263 275L263 277L261 276L259 280L254 280L242 288L237 283L219 283C215.74 277.707 204.926 273.843 199 275L200 272L189 273C196.29 303.692 225.611 319.242 253 328C232.597 338.253 214.074 342.353 199.478 362C191.643 372.547 190.124 388.701 182 398C179.853 373.412 160.284 349.555 139 338.756C133.85 336.143 125.111 330.637 119.108 331.502C111.783 332.558 108.554 345.93 104.766 350.57C101.61 354.437 97.1709 355.019 95 360L97 360L91 368L81 371L81 374C75.388 372.894 65.1256 378.387 62 383L61 383L62 380L57 376L55 350L51 350L51 349C53.0337 349.084 53.0337 347.916 51 348L51 343L50 343C50 361.444 49.8878 380.256 55.6713 398C58.3157 406.113 61.8992 413.965 66.7739 421C95.4311 462.354 143.31 460 188 460L288 460C332.329 460 389.508 469.39 427 440.5C460.441 414.732 462 375.588 462 337C462 276.974 463 217.04 463 157L462 157L457 177C452.992 176.734 450.321 178.108 449 182L448 182L447 180L445 181L445 183L443 182L443 184L432 188L430 182L419 188C416.578 182.293 405.731 179.876 399.996 177.199C390.699 172.859 380.546 168.102 372 162.441C364.041 157.168 356.184 149.925 347 147z"/>
<path style="fill:#78ccec; stroke:none;" d="M346 148L347 149L346 148z"/>
<path style="fill:#1f6db4; stroke:none;" d="M50 149L50 157L51 157L50 149z"/>
<path style="fill:#78ccec; stroke:none;" d="M165 149L166 150L165 149M200 149L201 150L200 149M312 149L313 150L312 149M347 149L348 150L347 149M164 150L165 151L164 150M201 150L202 151L201 150M311 150L312 151L311 150z"/>
<path style="fill:#2696d5; stroke:none;" d="M348 150L352 154L348 150z"/>
<path style="fill:#78ccec; stroke:none;" d="M163 151L164 152L163 151M202 151L203 152L202 151M310 151L311 152L310 151M348 151L349 152L348 151M309 152L310 153L309 152M349 152L350 153L349 152z"/>
<path style="fill:#1f6db4; stroke:none;" d="M458 152L459 153L458 152z"/>
<path style="fill:#78ccec; stroke:none;" d="M162 153L163 154L162 153M203 153L204 154L203 153M350 153L351 154L350 153M161 154L162 155L161 154M204 154L205 155L204 154M308 154L309 155L308 154M351 154L352 155L351 154M160 155L161 156L160 155M205 155L206 156L205 155M307 155L308 156L307 155M352 155L353 156L352 155M159 156L160 157L159 156M206 156L207 157L206 156M306 156L307 157L306 156M353 156L354 157L353 156M158 157L159 158L158 157M207 157L208 158L207 157M305 157L306 158L305 157M354 157L355 158L354 157z"/>
<path style="fill:#1f6db4; stroke:none;" d="M460 157L461 158L460 157z"/>
<path style="fill:#78ccec; stroke:none;" d="M157 158L158 159L157 158M208 158L209 159L208 158M304 158L305 159L304 158M355 158L356 159L355 158M156 159L157 160L156 159M209 159L210 160L209 159M303 159L304 160L303 159M356 159L360 163L356 159z"/>
<path style="fill:#2696d5; stroke:none;" d="M357 159L358 160L357 159z"/>
<path style="fill:#78ccec; stroke:none;" d="M155 160L156 161L155 160M210 160L211 161L210 160z"/>
<path style="fill:#2696d5; stroke:none;" d="M358 160L359 161L358 160z"/>
<path style="fill:#78ccec; stroke:none;" d="M153 161L154 162L153 161M300 161L301 162L300 161z"/>
<path style="fill:#2696d5; stroke:none;" d="M359 161L360 162L359 161z"/>
<path style="fill:#78ccec; stroke:none;" d="M152 162L153 163L152 162M213 162L214 163L213 162M299 162L300 163L299 162z"/>
<path style="fill:#2696d5; stroke:none;" d="M360 162L361 163L360 162z"/>
<path style="fill:#78ccec; stroke:none;" d="M151 163L152 164L151 163M214 163L215 164L214 163M298 163L299 164L298 163z"/>
<path style="fill:#2696d5; stroke:none;" d="M361 163L362 164L361 163z"/>
<path style="fill:#78ccec; stroke:none;" d="M150 164L151 165L150 164M215 164L216 165L215 164M297 164L298 165L297 164M362 164L366 167L366 166L362 164z"/>
<path style="fill:#2696d5; stroke:none;" d="M363 164L364 165L363 164z"/>
<path style="fill:#78ccec; stroke:none;" d="M148 165L149 166L148 165M217 165L218 166L217 165M295 165L296 166L295 165z"/>
<path style="fill:#2696d5; stroke:none;" d="M364 165L365 166L364 165z"/>
<path style="fill:#78ccec; stroke:none;" d="M147 166L148 167L147 166M218 166L219 167L218 166M294 166L295 167L294 166M145.667 167.333L146.333 167.667L145.667 167.333M219.667 167.333L220.333 167.667L219.667 167.333M292.667 167.333L293.333 167.667L292.667 167.333M366 167L368 169L366 167z"/>
<path style="fill:#2696d5; stroke:none;" d="M367 167L368 168L367 167z"/>
<path style="fill:#78ccec; stroke:none;" d="M144 168L145 169L144 168M221 168L222 169L221 168M291 168L292 169L291 168z"/>
<path style="fill:#2696d5; stroke:none;" d="M368 168L369 169L368 168z"/>
<path style="fill:#1f6db4; stroke:none;" d="M49 169L49 306L50 306L50 210C50 198.318 53.5075 179.742 49 169z"/>
<path style="fill:#78ccec; stroke:none;" d="M142 169L143 170L142 169M222.667 169.333L223.333 169.667L222.667 169.333M289 169L290 170L289 169M369 169L370 170L369 169z"/>
<path style="fill:#2696d5; stroke:none;" d="M370 169L371 170L370 169z"/>
<path style="fill:#78ccec; stroke:none;" d="M140.667 170.333L141.333 170.667L140.667 170.333M224 170L225 171L224 170M287.667 170.333L288.333 170.667L287.667 170.333M371 170L371 171L382 176L382 175L371 170z"/>
<path style="fill:#2696d5; stroke:none;" d="M372 170L373 171L372 170z"/>
<path style="fill:#78ccec; stroke:none;" d="M139 171L140 172L139 171M226 171L227 172L226 171M286 171L287 172L286 171z"/>
<path style="fill:#2696d5; stroke:none;" d="M374 171L375 172L374 171z"/>
<path style="fill:#78ccec; stroke:none;" d="M137 172L138 173L137 172M228 172L229 173L228 172M284 172L285 173L284 172z"/>
<path style="fill:#2696d5; stroke:none;" d="M376 172L377 173L376 172z"/>
<path style="fill:#78ccec; stroke:none;" d="M135 173L136 174L135 173M230 173L231 174L230 173M282 173L283 174L282 173z"/>
<path style="fill:#2696d5; stroke:none;" d="M378 173L379 174L378 173M460 173L461 174L460 173z"/>
<path style="fill:#78ccec; stroke:none;" d="M132.667 174.333L133.333 174.667L132.667 174.333M232 174L233 175L232 174M280 174L281 175L280 174z"/>
<path style="fill:#2696d5; stroke:none;" d="M380 174L381 175L380 174z"/>
<path style="fill:#78ccec; stroke:none;" d="M130.667 175.333L131.333 175.667L130.667 175.333M234.667 175.333L235.333 175.667L234.667 175.333M277.667 175.333L278.333 175.667L277.667 175.333z"/>
<path style="fill:#2696d5; stroke:none;" d="M382 175L383 176L382 175z"/>
<path style="fill:#78ccec; stroke:none;" d="M128 176L129 177L128 176M236.667 176.333L237.333 176.667L236.667 176.333M275 176L276 177L275 176M383 176L383 177L387 178L387 177L383 176z"/>
<path style="fill:#2696d5; stroke:none;" d="M385 176L386 177L385 176z"/>
<path style="fill:#78ccec; stroke:none;" d="M125.667 177.333L126.333 177.667L125.667 177.333M239.667 177.333L240.333 177.667L239.667 177.333M272.667 177.333L273.333 177.667L272.667 177.333z"/>
<path style="fill:#2696d5; stroke:none;" d="M387.667 177.333L388.333 177.667L387.667 177.333z"/>
<path style="fill:#78ccec; stroke:none;" d="M122.667 178.333L123.333 178.667L122.667 178.333M242.667 178.333L243.333 178.667L242.667 178.333M269.667 178.333L270.333 178.667L269.667 178.333M388.667 178.333L389.333 178.667L388.667 178.333z"/>
<path style="fill:#2696d5; stroke:none;" d="M390.667 178.333L391.333 178.667L390.667 178.333z"/>
<path style="fill:#78ccec; stroke:none;" d="M119.667 179.333L120.333 179.667L119.667 179.333M245.667 179.333L246.333 179.667L245.667 179.333M266.667 179.333L267.333 179.667L266.667 179.333M391.667 179.333L392.333 179.667L391.667 179.333z"/>
<path style="fill:#2696d5; stroke:none;" d="M393 179L393 180L396 180L393 179z"/>
<path style="fill:#78ccec; stroke:none;" d="M115 180L115 181L118 181L115 180M248 180L248 181L251 181L248 180M262 180L262 181L265 181L262 180M394 180L394 181L397 181L397 182L395 182L395 183L399 182L399 181L394 180z"/>
<path style="fill:#2696d5; stroke:none;" d="M397.667 180.333L398.333 180.667L397.667 180.333z"/>
<path style="fill:#78ccec; stroke:none;" d="M112 181L112 182L116 183L116 182L112 181M251.667 181.333L252.333 181.667L251.667 181.333M260.667 181.333L261.333 181.667L260.667 181.333z"/>
<path style="fill:#2696d5; stroke:none;" d="M399 181L397 182L397 183L399 181z"/>
<path style="fill:#78ccec; stroke:none;" d="M248 182L248 183L251 183L248 182M262.667 182.333L263.333 182.667L262.667 182.333M118.667 183.333L119.333 183.667L118.667 183.333M245.667 183.333L246.333 183.667L245.667 183.333M266.667 183.333L267.333 183.667L266.667 183.333M392.667 183.333L393.333 183.667L392.667 183.333z"/>
<path style="fill:#2696d5; stroke:none;" d="M394.667 183.333L395.333 183.667L394.667 183.333z"/>
<path style="fill:#78ccec; stroke:none;" d="M121 184L121 185L124 185L121 184M242.667 184.333L243.333 184.667L242.667 184.333M269.667 184.333L270.333 184.667L269.667 184.333M388 184L388 185L391 185L388 184z"/>
<path style="fill:#2696d5; stroke:none;" d="M391 184L392 185L391 184M411 184L412 185L411 184z"/>
<path style="fill:#78ccec; stroke:none;" d="M125.667 185.333L126.333 185.667L125.667 185.333M239.667 185.333L240.333 185.667L239.667 185.333M272.667 185.333L273.333 185.667L272.667 185.333M386 185L387 186L386 185z"/>
<path style="fill:#2696d5; stroke:none;" d="M387.667 185.333L388.333 185.667L387.667 185.333z"/>
<path style="fill:#78ccec; stroke:none;" d="M127.667 186.333L128.333 186.667L127.667 186.333M237 186L238 187L237 186M274.667 186.333L275.333 186.667L274.667 186.333M383.667 186.333L384.333 186.667L383.667 186.333z"/>
<path style="fill:#2696d5; stroke:none;" d="M385 186L386 187L385 186z"/>
<path style="fill:#78ccec; stroke:none;" d="M130.667 187.333L131.333 187.667L130.667 187.333M234.667 187.333L235.333 187.667L234.667 187.333z"/>
<path style="fill:#2696d5; stroke:none;" d="M236.667 187.333L237.333 187.667L236.667 187.333z"/>
<path style="fill:#1f6db4; stroke:none;" d="M238.667 187.333L239.333 187.667L238.667 187.333z"/>
<path style="fill:#78ccec; stroke:none;" d="M277 187L278 188L277 187M381 187L382 188L381 187z"/>
<path style="fill:#2696d5; stroke:none;" d="M382.667 187.333L383.333 187.667L382.667 187.333z"/>
<path style="fill:#78ccec; stroke:none;" d="M133 188L134 189L133 188M232 188L233 189L232 188z"/>
<path style="fill:#2696d5; stroke:none;" d="M229 190L229 191L235 189L229 190z"/>
<path style="fill:#1f6db4; stroke:none;" d="M194 251C200.997 251.399 204.921 245.975 210 242L209 239L213 239L215 235L229 215L232 216L234 208L240 196L237 195L239 193L238 189C232.291 187.434 224.679 193.275 220 196.228C204.347 206.109 186.988 227.608 185.384 246.981C184.979 251.875 190.821 254.581 194 251z"/>
<path style="fill:#78ccec; stroke:none;" d="M279.667 188.333L280.333 188.667L279.667 188.333M379 188L380 189L379 188z"/>
<path style="fill:#2696d5; stroke:none;" d="M380 188L381 189L380 188M434 188L435 189L434 188z"/>
<path style="fill:#78ccec; stroke:none;" d="M135 189L136 190L135 189M230 189L231 190L230 189z"/>
<path style="fill:#1f6db4; stroke:none;" d="M279 189L280 190L279 189z"/>
<path style="fill:#78ccec; stroke:none;" d="M281.667 189.333L282.333 189.667L281.667 189.333M377 189L378 190L377 189z"/>
<path style="fill:#2696d5; stroke:none;" d="M378 189L379 190L378 189M432 189L433 190L432 189z"/>
<path style="fill:#78ccec; stroke:none;" d="M137 190L138 191L137 190M228 190L229 191L228 190z"/>
<path style="fill:#1f6db4; stroke:none;" d="M280.667 190.333L281.333 190.667L280.667 190.333z"/>
<path style="fill:#78ccec; stroke:none;" d="M284 190L285 191L284 190M375 190L376 191L375 190z"/>
<path style="fill:#2696d5; stroke:none;" d="M376 190L377 191L376 190z"/>
<path style="fill:#78ccec; stroke:none;" d="M139 191L140 192L139 191M226 191L225 193L226 191z"/>
<path style="fill:#2696d5; stroke:none;" d="M227 191L228 192L227 191z"/>
<path style="fill:#78ccec; stroke:none;" d="M285 191L285 192L288 193L285 191M373 191L374 192L373 191z"/>
<path style="fill:#2696d5; stroke:none;" d="M374 191L375 192L374 191z"/>
<path style="fill:#78ccec; stroke:none;" d="M140.667 192.333L141.333 192.667L140.667 192.333z"/>
<path style="fill:#2696d5; stroke:none;" d="M226 192L227 193L226 192M286 192L287 193L286 192z"/>
<path style="fill:#78ccec; stroke:none;" d="M371 192L372 193L371 192z"/>
<path style="fill:#2696d5; stroke:none;" d="M372 192L373 193L372 192z"/>
<path style="fill:#78ccec; stroke:none;" d="M142 193L143 194L142 193M223 193L224 194L223 193z"/>
<path style="fill:#2696d5; stroke:none;" d="M224 193L225 194L224 193M288 193L289 194L288 193z"/>
<path style="fill:#78ccec; stroke:none;" d="M289 193L290 194L289 193M369 193L370 194L369 193z"/>
<path style="fill:#2696d5; stroke:none;" d="M370 193L371 194L370 193z"/>
<path style="fill:#78ccec; stroke:none;" d="M144 194L145 195L144 194M221 194L220 196L221 194z"/>
<path style="fill:#2696d5; stroke:none;" d="M222 194L223 195L222 194M290 194L292 196L290 194z"/>
<path style="fill:#78ccec; stroke:none;" d="M291 194L292 195L291 194M368 194L369 195L368 194M145 195L146 196L145 195z"/>
<path style="fill:#2696d5; stroke:none;" d="M221 195L222 196L221 195z"/>
<path style="fill:#78ccec; stroke:none;" d="M292 195L293 196L292 195M366 195L367 196L366 195z"/>
<path style="fill:#2696d5; stroke:none;" d="M367 195L368 196L367 195z"/>
<path style="fill:#78ccec; stroke:none;" d="M147 196L149 198L147 196M218 196L219 197L218 196z"/>
<path style="fill:#2696d5; stroke:none;" d="M219 196L220 197L219 196M293 196L295 198L293 196z"/>
<path style="fill:#78ccec; stroke:none;" d="M294 196L295 197L294 196M365 196L366 197L365 196z"/>
<path style="fill:#1f6db4; stroke:none;" d="M146 197L148 199L146 197z"/>
<path style="fill:#2696d5; stroke:none;" d="M147 197L148 198L147 197z"/>
<path style="fill:#78ccec; stroke:none;" d="M217 197L218 198L217 197M295 197L296 198L295 197M363 197L364 198L363 197z"/>
<path style="fill:#2696d5; stroke:none;" d="M364 197L365 198L364 197z"/>
<path style="fill:#78ccec; stroke:none;" d="M150 198L154 202L150 198z"/>
<path style="fill:#2696d5; stroke:none;" d="M216 198L217 199L216 198M296 198L297 199L296 198z"/>
<path style="fill:#78ccec; stroke:none;" d="M362 198L363 199L362 198z"/>
<path style="fill:#1f6db4; stroke:none;" d="M149 199L159 220C166.149 226.39 177.585 240.709 180 250L181 250C179.352 231.1 165.353 208.453 149 199z"/>
<path style="fill:#2696d5; stroke:none;" d="M150 199L151 200L150 199z"/>
<path style="fill:#78ccec; stroke:none;" d="M214 199L215 200L214 199z"/>
<path style="fill:#2696d5; stroke:none;" d="M215 199L216 200L215 199M297 199L298 200L297 199z"/>
<path style="fill:#78ccec; stroke:none;" d="M298 199L299 200L298 199M361 199L362 200L361 199z"/>
<path style="fill:#2696d5; stroke:none;" d="M151 200L152 201L151 200z"/>
<path style="fill:#78ccec; stroke:none;" d="M213 200L214 201L213 200M299 200L300 201L299 200z"/>
<path style="fill:#2696d5; stroke:none;" d="M360 200L361 201L360 200z"/>
<path style="fill:#78ccec; stroke:none;" d="M212 201L213 202L212 201M300 201L301 202L300 201M358 201L359 202L358 201z"/>
<path style="fill:#2696d5; stroke:none;" d="M359 201L360 202L359 201M154 202L155 203L154 202M211 202L212 203L211 202M301 202L302 203L301 202z"/>
<path style="fill:#78ccec; stroke:none;" d="M357 202L358 203L357 202z"/>
<path style="fill:#2696d5; stroke:none;" d="M155 203L156 204L155 203M210 203L211 204L210 203M302 203L303 204L302 203z"/>
<path style="fill:#78ccec; stroke:none;" d="M356 203L357 204L356 203z"/>
<path style="fill:#2696d5; stroke:none;" d="M156 204L157 205L156 204M209 204L210 205L209 204M303 204L304 205L303 204z"/>
<path style="fill:#78ccec; stroke:none;" d="M355 204L356 205L355 204z"/>
<path style="fill:#2696d5; stroke:none;" d="M157 205L160 208L157 205z"/>
<path style="fill:#78ccec; stroke:none;" d="M158 205L159 206L158 205M207 205L208 206L207 205z"/>
<path style="fill:#2696d5; stroke:none;" d="M208 205L209 206L208 205M304 205L306 207L304 205z"/>
<path style="fill:#78ccec; stroke:none;" d="M305 205L306 206L305 205M354 205L355 206L354 205M159 206L160 207L159 206z"/>
<path style="fill:#2696d5; stroke:none;" d="M207 206L208 207L207 206z"/>
<path style="fill:#78ccec; stroke:none;" d="M353 206L354 207L353 206z"/>
<path style="fill:#2696d5; stroke:none;" d="M206 207L207 208L206 207M306 207L307 208L306 207z"/>
<path style="fill:#78ccec; stroke:none;" d="M352 207L353 208L352 207z"/>
<path style="fill:#2696d5; stroke:none;" d="M160 208L161 209L160 208M205 208L206 209L205 208M307 208L308 209L307 208z"/>
<path style="fill:#78ccec; stroke:none;" d="M351 208L352 209L351 208z"/>
<path style="fill:#2696d5; stroke:none;" d="M161 209L162 210L161 209M204 209L205 210L204 209M308 209L309 210L308 209z"/>
<path style="fill:#78ccec; stroke:none;" d="M350 209L351 210L350 209z"/>
<path style="fill:#2696d5; stroke:none;" d="M162 210L163 211L162 210M203 210L204 211L203 210M233 210L234 211L233 210z"/>
<path style="fill:#78ccec; stroke:none;" d="M309 210L310 211L309 210M349 210L350 211L349 210M163 211L164 212L163 211M202 211L203 212L202 211M310 211L311 212L310 211z"/>
<path style="fill:#2696d5; stroke:none;" d="M349 211L350 212L349 211z"/>
<path style="fill:#78ccec; stroke:none;" d="M164 212L166 214L164 212M201 212L200 214L201 212M311 212L313 214L311 212z"/>
<path style="fill:#2696d5; stroke:none;" d="M348 212L349 213L348 212M164 213L165 214L164 213M201 213L202 214L201 213M311 213L312 214L311 213z"/>
<path style="fill:#78ccec; stroke:none;" d="M347 213L348 214L347 213z"/>
<path style="fill:#2696d5; stroke:none;" d="M165 214L166 215L165 214M200 214L201 215L200 214M312 214L313 215L312 214z"/>
<path style="fill:#78ccec; stroke:none;" d="M346 214L347 215L346 214z"/>
<path style="fill:#2696d5; stroke:none;" d="M166 215L167 216L166 215z"/>
<path style="fill:#78ccec; stroke:none;" d="M199 215L200 216L199 215M313 215L314 216L313 215M345 215L346 216L345 215M167 216L169 218L167 216M198 216L199 217L198 216M314 216L315 217L314 216z"/>
<path style="fill:#2696d5; stroke:none;" d="M345 216L346 217L345 216M167 217L168 218L167 217M198 217L199 218L198 217M314 217L315 218L314 217z"/>
<path style="fill:#78ccec; stroke:none;" d="M344 217L345 218L344 217z"/>
<path style="fill:#2696d5; stroke:none;" d="M168 218L169 219L168 218M197 218L198 219L197 218M315 218L316 219L315 218z"/>
<path style="fill:#78ccec; stroke:none;" d="M343 218L344 219L343 218M169 219L171 221L169 219M196 219L197 220L196 219M316 219L317 220L316 219z"/>
<path style="fill:#2696d5; stroke:none;" d="M343 219L344 220L343 219M169 220L170 221L169 220M196 220L197 221L196 220M316 220L317 221L316 220z"/>
<path style="fill:#78ccec; stroke:none;" d="M342 220L343 221L342 220z"/>
<path style="fill:#2696d5; stroke:none;" d="M170 221L171 222L170 221z"/>
<path style="fill:#78ccec; stroke:none;" d="M195 221L196 222L195 221z"/>
<path style="fill:#2696d5; stroke:none;" d="M290 221L291 222L290 221z"/>
<path style="fill:#78ccec; stroke:none;" d="M317 221L318 222L317 221M341.333 221.667L341.667 222.333L341.333 221.667M171 222L173 226L174 226L171 222M194 222L195 223L194 222M318 222L319 223L318 222z"/>
<path style="fill:#2696d5; stroke:none;" d="M171 223L172 224L171 223M194 223L195 224L194 223M318 223L319 224L318 223z"/>
<path style="fill:#78ccec; stroke:none;" d="M340 223L341 224L340 223M193 224L194 225L193 224M319 224L320 225L319 224z"/>
<path style="fill:#2696d5; stroke:none;" d="M340 224L341 225L340 224M172 225L173 226L172 225M193 225L194 226L193 225M319 225L320 226L319 225z"/>
<path style="fill:#78ccec; stroke:none;" d="M339 225L340 226L339 225z"/>
<path style="fill:#2696d5; stroke:none;" d="M173 226L174 227L173 226z"/>
<path style="fill:#78ccec; stroke:none;" d="M192 226L193 227L192 226M320 226L321 227L320 226z"/>
<path style="fill:#2696d5; stroke:none;" d="M339 226L340 227L339 226z"/>
<path style="fill:#78ccec; stroke:none;" d="M174 227L175 228L174 227z"/>
<path style="fill:#2696d5; stroke:none;" d="M192 227L193 228L192 227M320 227L321 228L320 227z"/>
<path style="fill:#78ccec; stroke:none;" d="M338 227L339 228L338 227z"/>
<path style="fill:#2696d5; stroke:none;" d="M174.333 228.667L174.667 229.333L174.333 228.667z"/>
<path style="fill:#78ccec; stroke:none;" d="M191 228L192 229L191 228M321 228L322 229L321 228z"/>
<path style="fill:#2696d5; stroke:none;" d="M338 228L339 229L338 228z"/>
<path style="fill:#78ccec; stroke:none;" d="M175 229L177 235L178 235L175 229z"/>
<path style="fill:#2696d5; stroke:none;" d="M191 229L192 230L191 229M321 229L322 230L321 229z"/>
<path style="fill:#78ccec; stroke:none;" d="M337 229L338 230L337 229M190 230L191 231L190 230M322 230L323 231L322 230z"/>
<path style="fill:#2696d5; stroke:none;" d="M337 230L338 231L337 230M175 231L176 232L175 231M190 231L191 232L190 231M322 231L323 232L322 231z"/>
<path style="fill:#78ccec; stroke:none;" d="M336 231L337 232L336 231M189 232L190 233L189 232M323 232L324 233L323 232z"/>
<path style="fill:#2696d5; stroke:none;" d="M336 232L337 233L336 232M176 233L177 234L176 233M189.333 233.667L189.667 234.333L189.333 233.667M323 233L324 234L323 233z"/>
<path style="fill:#78ccec; stroke:none;" d="M335.333 233.667L335.667 234.333L335.333 233.667M188.333 234.667L188.667 235.333L188.333 234.667M324 234L325 238L326 238L324 234z"/>
<path style="fill:#2696d5; stroke:none;" d="M177.333 235.667L177.667 236.333L177.333 235.667M335 235L336 236L335 235z"/>
<path style="fill:#78ccec; stroke:none;" d="M178.333 236.667L178.667 237.333L178.333 236.667z"/>
<path style="fill:#2696d5; stroke:none;" d="M188 236L189 237L188 236M324 236L325 237L324 236z"/>
<path style="fill:#78ccec; stroke:none;" d="M334 236L335 237L334 236M187 237L188 238L187 237z"/>
<path style="fill:#2696d5; stroke:none;" d="M334 237L335 238L334 237M178 238L179 239L178 238M187.333 238.667L187.667 239.333L187.333 238.667M325 238L326 239L325 238z"/>
<path style="fill:#78ccec; stroke:none;" d="M333.333 238.667L333.667 239.333L333.333 238.667M179.333 239.667L179.667 240.333L179.333 239.667M186.333 239.667L186.667 240.333L186.333 239.667M326.333 239.667L326.667 240.333L326.333 239.667z"/>
<path style="fill:#2696d5; stroke:none;" d="M333 240L334 241L333 240M179.333 241.667L179.667 242.333L179.333 241.667M186.333 241.667L186.667 242.333L186.333 241.667M207 241L208 242L207 241M326 241L327 242L326 241z"/>
<path style="fill:#78ccec; stroke:none;" d="M332.333 241.667L332.667 242.333L332.333 241.667M180.333 242.667L180.667 243.333L180.333 242.667M185.333 242.667L185.667 243.333L185.333 242.667z"/>
<path style="fill:#2696d5; stroke:none;" d="M205 242L206 243L205 242z"/>
<path style="fill:#78ccec; stroke:none;" d="M327.333 242.667L327.667 243.333L327.333 242.667z"/>
<path style="fill:#2696d5; stroke:none;" d="M332 243L333 244L332 243M180.333 244.667L180.667 245.333L180.333 244.667M185.333 244.667L185.667 245.333L185.333 244.667M203 244L204 245L203 244M327.333 244.667L327.667 245.333L327.333 244.667z"/>
<path style="fill:#78ccec; stroke:none;" d="M331.333 244.667L331.667 245.333L331.333 244.667M181.333 245.667L181.667 246.333L181.333 245.667M184 245L184 248L185 248L184 245M328 245L328 248L329 248L328 245z"/>
<path style="fill:#2696d5; stroke:none;" d="M331.333 246.667L331.667 247.333L331.333 246.667M328 248L329 249L328 248z"/>
<path style="fill:#78ccec; stroke:none;" d="M330 248L329 251L330 248M182 249L182 251L184 251L184 249L182 249z"/>
<path style="fill:#2696d5; stroke:none;" d="M187 250L188 251L187 250M190 250L191 251L190 250M330 250L331 251L330 250z"/>
<path style="fill:#1f6db4; stroke:none;" d="M181 251L182 252L181 251M195.333 252.667L195.667 253.333L195.333 252.667z"/>
<path style="fill:#2696d5; stroke:none;" d="M329 258L331 260L329 258z"/>
<path style="fill:#78ccec; stroke:none;" d="M182 259L182 262L184 259L182 259M329 259L331 262L329 259z"/>
<path style="fill:#2696d5; stroke:none;" d="M328.333 260.667L328.667 261.333L328.333 260.667z"/>
<path style="fill:#ebf7fc; stroke:none;" d="M183 261C168.644 293.388 152.259 319.38 115 328L115 329C146.077 335.431 177.194 362.461 182 395C188.288 390.235 190.774 375.099 195.229 368C207.077 349.123 228.412 332.336 251 329L251 328C228.564 322.81 207.602 308.704 195.461 289C190.001 280.139 187.865 269.95 183 261M329 261C323.987 294.945 293.025 319.196 262 328L262 329C286.781 332.66 308.605 351.962 320.572 373C324.524 379.949 325.806 388.335 330 395C344.069 363.26 360.533 337.437 397 329L397 328C374.999 320.841 355.591 309.953 342.699 290C337.059 281.271 335.358 268.731 329 261z"/>
<path style="fill:#1f6db4; stroke:none;" d="M185 262L186 263L185 262z"/>
<path style="fill:#2696d5; stroke:none;" d="M294 262L295 263L294 262z"/>
<path style="fill:#78ccec; stroke:none;" d="M328 262L328 265L329 265L328 262z"/>
<path style="fill:#2696d5; stroke:none;" d="M331.333 262.667L331.667 263.333L331.333 262.667z"/>
<path style="fill:#78ccec; stroke:none;" d="M181.333 263.667L181.667 264.333L181.333 263.667M184.333 263.667L184.667 264.333L184.333 263.667z"/>
<path style="fill:#2696d5; stroke:none;" d="M327.333 264.667L327.667 265.333L327.333 264.667z"/>
<path style="fill:#78ccec; stroke:none;" d="M331.333 264.667L331.667 265.333L331.333 264.667z"/>
<path style="fill:#2696d5; stroke:none;" d="M332.333 265.667L332.667 266.333L332.333 265.667z"/>
<path style="fill:#78ccec; stroke:none;" d="M180.333 266.667L180.667 267.333L180.333 266.667M185.333 266.667L185.667 267.333L185.333 266.667M327.333 266.667L327.667 267.333L327.333 266.667z"/>
<path style="fill:#1f6db4; stroke:none;" d="M187.333 267.667L187.667 268.333L187.333 267.667z"/>
<path style="fill:#2696d5; stroke:none;" d="M326.333 267.667L326.667 268.333L326.333 267.667z"/>
<path style="fill:#78ccec; stroke:none;" d="M332.333 267.667L332.667 268.333L332.333 267.667z"/>
<path style="fill:#2696d5; stroke:none;" d="M283 268L284 269L283 268z"/>
<path style="fill:#78ccec; stroke:none;" d="M179.333 269.667L179.667 270.333L179.333 269.667M186.333 269.667L186.667 270.333L186.333 269.667M326.333 269.667L326.667 270.333L326.333 269.667z"/>
<path style="fill:#2696d5; stroke:none;" d="M333 269L334 270L333 269z"/>
<path style="fill:#1f6db4; stroke:none;" d="M188.333 270.667L188.667 271.333L188.333 270.667z"/>
<path style="fill:#2696d5; stroke:none;" d="M325.333 270.667L325.667 271.333L325.333 270.667z"/>
<path style="fill:#78ccec; stroke:none;" d="M333.333 270.667L333.667 271.333L333.333 270.667z"/>
<path style="fill:#2696d5; stroke:none;" d="M334.333 271.667L334.667 272.333L334.333 271.667z"/>
<path style="fill:#78ccec; stroke:none;" d="M178.333 272.667L178.667 273.333L178.333 272.667M187 272L188 273L187 272M325 272L326 273L325 272z"/>
<path style="fill:#2696d5; stroke:none;" d="M324 273L325 274L324 273z"/>
<path style="fill:#78ccec; stroke:none;" d="M334 273L335 274L334 273z"/>
<path style="fill:#1f6db4; stroke:none;" d="M176 274L177 275L176 274z"/>
<path style="fill:#78ccec; stroke:none;" d="M188.333 274.667L188.667 275.333L188.333 274.667M324.333 274.667L324.667 275.333L324.333 274.667z"/>
<path style="fill:#2696d5; stroke:none;" d="M335 274L336 275L335 274z"/>
<path style="fill:#78ccec; stroke:none;" d="M177 275L178 276L177 275z"/>
<path style="fill:#2696d5; stroke:none;" d="M189.333 275.667L189.667 276.333L189.333 275.667M323.333 275.667L323.667 276.333L323.333 275.667z"/>
<path style="fill:#78ccec; stroke:none;" d="M335.333 275.667L335.667 276.333L335.333 275.667z"/>
<path style="fill:#1f6db4; stroke:none;" d="M175 276L176 277L175 276z"/>
<path style="fill:#78ccec; stroke:none;" d="M176.333 277.667L176.667 278.333L176.333 277.667M189 277L190 278L189 277M323 277L324 278L323 277z"/>
<path style="fill:#2696d5; stroke:none;" d="M336 277L337 278L336 277z"/>
<path style="fill:#1f6db4; stroke:none;" d="M174 278L175 279L174 278z"/>
<path style="fill:#2696d5; stroke:none;" d="M190 278L191 279L190 278M322 278L323 279L322 278z"/>
<path style="fill:#78ccec; stroke:none;" d="M336 278L337 279L336 278M175.333 279.667L175.667 280.333L175.333 279.667M190 279L191 280L190 279M322 279L323 280L322 279z"/>
<path style="fill:#2696d5; stroke:none;" d="M337 279L338 280L337 279z"/>
<path style="fill:#1f6db4; stroke:none;" d="M173 280L174 281L173 280z"/>
<path style="fill:#2696d5; stroke:none;" d="M191 280L192 281L191 280M321 280L322 281L321 280z"/>
<path style="fill:#78ccec; stroke:none;" d="M337 280L338 281L337 280M174.333 281.667L174.667 282.333L174.333 281.667M191 281L193 284L191 281M321 281L322 282L321 281z"/>
<path style="fill:#2696d5; stroke:none;" d="M338 281L339 282L338 281z"/>
<path style="fill:#1f6db4; stroke:none;" d="M172 282C156.833 296.046 141.612 313.395 123 323L123 324C138.706 321.296 154.701 309.241 164.331 297C167.353 293.158 172.742 287.083 172 282z"/>
<path style="fill:#2696d5; stroke:none;" d="M192 282L193 283L192 282M320 282L321 283L320 282z"/>
<path style="fill:#78ccec; stroke:none;" d="M338 282L339 283L338 282M173 283L172 286L173 283z"/>
<path style="fill:#2696d5; stroke:none;" d="M255 283L256 284L255 283z"/>
<path style="fill:#78ccec; stroke:none;" d="M320 283L321 284L320 283z"/>
<path style="fill:#2696d5; stroke:none;" d="M339 283L340 284L339 283M172 284L173 285L172 284M193 284L194 285L193 284M319 284L320 285L319 284z"/>
<path style="fill:#78ccec; stroke:none;" d="M339 284L340 285L339 284M193 285L194 286L193 285z"/>
<path style="fill:#2696d5; stroke:none;" d="M247 285L246 287L247 285z"/>
<path style="fill:#78ccec; stroke:none;" d="M319 285L320 286L319 285z"/>
<path style="fill:#2696d5; stroke:none;" d="M340 285L341 286L340 285M171 286L169 290L170 290L171 286M194 286L195 287L194 286M318 286L317 288L318 286z"/>
<path style="fill:#78ccec; stroke:none;" d="M340 286L341 287L340 286M171 287L172 288L171 287M194 287L195 288L194 287z"/>
<path style="fill:#2696d5; stroke:none;" d="M230 287L231 288L230 287z"/>
<path style="fill:#78ccec; stroke:none;" d="M318 287L319 288L318 287M341 287L343 290L341 287z"/>
<path style="fill:#2696d5; stroke:none;" d="M195 288L197 290L195 288z"/>
<path style="fill:#78ccec; stroke:none;" d="M317 288L318 289L317 288z"/>
<path style="fill:#2696d5; stroke:none;" d="M342 288L343 289L342 288z"/>
<path style="fill:#78ccec; stroke:none;" d="M170 289L171 290L170 289M195 289L196 290L195 289z"/>
<path style="fill:#2696d5; stroke:none;" d="M316 289L317 290L316 289z"/>
<path style="fill:#78ccec; stroke:none;" d="M169 290L170 291L169 290M196 290L197 291L196 290M316 290L317 291L316 290z"/>
<path style="fill:#2696d5; stroke:none;" d="M343 290L344 291L343 290M168 291L167 293L168 291M197 291L199 293L197 291M315 291L314 293L315 291z"/>
<path style="fill:#78ccec; stroke:none;" d="M343 291L344 292L343 291M168 292L169 293L168 292M197 292L198 293L197 292M315 292L316 293L315 292M344 292L345 293L344 292M167 293L168 294L167 293M198 293L199 294L198 293M314 293L315 294L314 293z"/>
<path style="fill:#2696d5; stroke:none;" d="M345 293L347 295L345 293M166 294L164 297L166 294M199 294L200 295L199 294z"/>
<path style="fill:#78ccec; stroke:none;" d="M313 294L314 295L313 294M345 294L346 295L345 294M166 295L167 296L166 295z"/>
<path style="fill:#2696d5; stroke:none;" d="M200 295L202 297L200 295M312 295L311 297L312 295z"/>
<path style="fill:#78ccec; stroke:none;" d="M346 295L347 296L346 295M165 296L166 297L165 296M200 296L201 297L200 296M312 296L313 297L312 296M347 296L348 297L347 296M164 297L165 298L164 297M201 297L202 298L201 297M311 297L312 298L311 297z"/>
<path style="fill:#2696d5; stroke:none;" d="M348 297L349 298L348 297z"/>
<path style="fill:#78ccec; stroke:none;" d="M163 298L164 299L163 298M202 298L203 299L202 298M310 298L311 299L310 298z"/>
<path style="fill:#2696d5; stroke:none;" d="M349 298L350 299L349 298M162 299L154 308L162 299M203 299L204 300L203 299z"/>
<path style="fill:#78ccec; stroke:none;" d="M309 299L310 300L309 299M349 299L350 300L349 299M162 300L163 301L162 300z"/>
<path style="fill:#2696d5; stroke:none;" d="M204 300L205 301L204 300M308 300L309 301L308 300z"/>
<path style="fill:#78ccec; stroke:none;" d="M350 300L351 301L350 300M161 301L162 302L161 301z"/>
<path style="fill:#2696d5; stroke:none;" d="M205 301L210 306L205 301M307 301L308 302L307 301z"/>
<path style="fill:#78ccec; stroke:none;" d="M351 301L352 302L351 301M160 302L161 303L160 302M205 302L206 303L205 302z"/>
<path style="fill:#2696d5; stroke:none;" d="M306 302L307 303L306 302z"/>
<path style="fill:#78ccec; stroke:none;" d="M352 302L353 303L352 302M159 303L160 304L159 303M206 303L207 304L206 303z"/>
<path style="fill:#2696d5; stroke:none;" d="M305 303L306 304L305 303z"/>
<path style="fill:#78ccec; stroke:none;" d="M353 303L354 304L353 303M158 304L159 305L158 304M207 304L208 305L207 304z"/>
<path style="fill:#2696d5; stroke:none;" d="M304 304L305 305L304 304z"/>
<path style="fill:#78ccec; stroke:none;" d="M354 304L355 305L354 304M157 305L158 306L157 305M208 305L209 306L208 305z"/>
<path style="fill:#2696d5; stroke:none;" d="M303 305L304 306L303 305z"/>
<path style="fill:#78ccec; stroke:none;" d="M355 305L356 306L355 305M156 306L157 307L156 306z"/>
<path style="fill:#2696d5; stroke:none;" d="M210 306L211 307L210 306M302 306L303 307L302 306z"/>
<path style="fill:#78ccec; stroke:none;" d="M356 306L357 307L356 306z"/>
<path style="fill:#1f6db4; stroke:none;" d="M49 307L50 308L49 307z"/>
<path style="fill:#78ccec; stroke:none;" d="M155 307L156 308L155 307z"/>
<path style="fill:#2696d5; stroke:none;" d="M211 307L212 308L211 307z"/>
<path style="fill:#78ccec; stroke:none;" d="M301 307L302 308L301 307M357 307L358 308L357 307M153 308L154 309L153 308M212 308L213 309L212 308M300 308L301 309L300 308M358 308L359 309L358 308z"/>
<path style="fill:#2696d5; stroke:none;" d="M359 308L360 309L359 308z"/>
<path style="fill:#1f6db4; stroke:none;" d="M50 309L51 310L50 309z"/>
<path style="fill:#2696d5; stroke:none;" d="M151 309L149 312L151 309z"/>
<path style="fill:#78ccec; stroke:none;" d="M152 309L153 310L152 309M213 309L214 310L213 309z"/>
<path style="fill:#2696d5; stroke:none;" d="M298 309L297 311L298 309z"/>
<path style="fill:#78ccec; stroke:none;" d="M299 309L300 310L299 309z"/>
<path style="fill:#2696d5; stroke:none;" d="M360 309L361 310L360 309z"/>
<path style="fill:#78ccec; stroke:none;" d="M151 310L152 311L151 310M214 310L216 312L214 310z"/>
<path style="fill:#2696d5; stroke:none;" d="M215 310L216 311L215 310z"/>
<path style="fill:#78ccec; stroke:none;" d="M298 310L299 311L298 310M361 310L362 311L361 310z"/>
<path style="fill:#1f6db4; stroke:none;" d="M50 311L51 312L50 311z"/>
<path style="fill:#78ccec; stroke:none;" d="M150 311L151 312L150 311z"/>
<path style="fill:#2696d5; stroke:none;" d="M216 311L217 312L216 311M296 311L297 312L296 311z"/>
<path style="fill:#78ccec; stroke:none;" d="M362 311L363 312L362 311z"/>
<path style="fill:#2696d5; stroke:none;" d="M147 312L146 314L147 312z"/>
<path style="fill:#78ccec; stroke:none;" d="M148 312L149 313L148 312M217 312L218 313L217 312M295 312L296 313L295 312M363 312L364 313L363 312z"/>
<path style="fill:#2696d5; stroke:none;" d="M364 312L365 313L364 312z"/>
<path style="fill:#78ccec; stroke:none;" d="M147 313L148 314L147 313M218 313L219 314L218 313z"/>
<path style="fill:#2696d5; stroke:none;" d="M219 313L220 314L219 313M293 313L294 314L293 313z"/>
<path style="fill:#78ccec; stroke:none;" d="M294 313L295 314L294 313M365 313L366 314L365 313z"/>
<path style="fill:#2696d5; stroke:none;" d="M144 314L143 316L144 314z"/>
<path style="fill:#78ccec; stroke:none;" d="M145 314L146 315L145 314M220 314L221 315L220 314M292 314L293 315L292 314M366 314L367 315L366 314z"/>
<path style="fill:#2696d5; stroke:none;" d="M367 314L368 315L367 314z"/>
<path style="fill:#1f6db4; stroke:none;" d="M50 315L51 316L50 315z"/>
<path style="fill:#78ccec; stroke:none;" d="M144 315L145 316L144 315M221 315L222 316L221 315z"/>
<path style="fill:#2696d5; stroke:none;" d="M222 315L223 316L222 315M290 315L291 316L290 315z"/>
<path style="fill:#78ccec; stroke:none;" d="M291 315L292 316L291 315M368 315L369 316L368 315z"/>
<path style="fill:#2696d5; stroke:none;" d="M141 316L142 317L141 316z"/>
<path style="fill:#78ccec; stroke:none;" d="M142 316L143 317L142 316M223 316L226 318L226 317L223 316z"/>
<path style="fill:#2696d5; stroke:none;" d="M224 316L225 317L224 316M288 316L289 317L288 316z"/>
<path style="fill:#78ccec; stroke:none;" d="M289 316L290 317L289 316M369.667 316.333L370.333 316.667L369.667 316.333z"/>
<path style="fill:#2696d5; stroke:none;" d="M139 317L131 321L131 322L140 318L139 317z"/>
<path style="fill:#78ccec; stroke:none;" d="M140.667 317.333L141.333 317.667L140.667 317.333M287 317L288 318L287 317M371 317L372 318L371 317z"/>
<path style="fill:#2696d5; stroke:none;" d="M372 317L373 318L372 317z"/>
<path style="fill:#78ccec; stroke:none;" d="M139 318L140 319L139 318M226 318L227 319L226 318z"/>
<path style="fill:#2696d5; stroke:none;" d="M227 318L228 319L227 318M285 318L286 319L285 318z"/>
<path style="fill:#78ccec; stroke:none;" d="M286 318L287 319L286 318M373 318L374 319L373 318z"/>
<path style="fill:#2696d5; stroke:none;" d="M374 318L375 319L374 318z"/>
<path style="fill:#78ccec; stroke:none;" d="M137 319L138 320L137 319M228 319L229 320L228 319z"/>
<path style="fill:#2696d5; stroke:none;" d="M229 319L230 320L229 319M283 319L284 320L283 319z"/>
<path style="fill:#78ccec; stroke:none;" d="M284 319L285 320L284 319M375 319L376 320L375 319z"/>
<path style="fill:#2696d5; stroke:none;" d="M376 319L377 320L376 319z"/>
<path style="fill:#78ccec; stroke:none;" d="M135 320L136 321L135 320M230 320L231 321L230 320z"/>
<path style="fill:#2696d5; stroke:none;" d="M231 320L232 321L231 320M281 320L282 321L281 320z"/>
<path style="fill:#78ccec; stroke:none;" d="M282 320L283 321L282 320M377 320L378 321L377 320z"/>
<path style="fill:#2696d5; stroke:none;" d="M378 320L379 321L378 320z"/>
<path style="fill:#78ccec; stroke:none;" d="M133 321L134 322L133 321M232 321L233 322L232 321z"/>
<path style="fill:#2696d5; stroke:none;" d="M233 321L234 322L233 321M278 321L279 322L278 321z"/>
<path style="fill:#78ccec; stroke:none;" d="M279.667 321.333L280.333 321.667L279.667 321.333M379 321L380 322L379 321z"/>
<path style="fill:#2696d5; stroke:none;" d="M380 321L381 322L380 321M126 323L126 324L130 323L126 323z"/>
<path style="fill:#78ccec; stroke:none;" d="M130.667 322.333L131.333 322.667L130.667 322.333M234.667 322.333L235.333 322.667L234.667 322.333z"/>
<path style="fill:#2696d5; stroke:none;" d="M236 322L237 323L236 322M276 322L277 323L276 322z"/>
<path style="fill:#78ccec; stroke:none;" d="M277.667 322.333L278.333 322.667L277.667 322.333M381 322L382 323L381 322z"/>
<path style="fill:#2696d5; stroke:none;" d="M382 322L383 323L382 322z"/>
<path style="fill:#78ccec; stroke:none;" d="M128 323L129 324L128 323M237 323L238 324L237 323z"/>
<path style="fill:#2696d5; stroke:none;" d="M238 323L239 324L238 323M273.667 323.333L274.333 323.667L273.667 323.333z"/>
<path style="fill:#78ccec; stroke:none;" d="M275 323L276 324L275 323M383.667 323.333L384.333 323.667L383.667 323.333z"/>
<path style="fill:#2696d5; stroke:none;" d="M385 323L386 324L385 323z"/>
<path style="fill:#1f6db4; stroke:none;" d="M121 324L122 325L121 324z"/>
<path style="fill:#78ccec; stroke:none;" d="M125.667 324.333L126.333 324.667L125.667 324.333M239.667 324.333L240.333 324.667L239.667 324.333z"/>
<path style="fill:#2696d5; stroke:none;" d="M241 324L242 325L241 324M270.667 324.333L271.333 324.667L270.667 324.333z"/>
<path style="fill:#78ccec; stroke:none;" d="M272.667 324.333L273.333 324.667L272.667 324.333M386.667 324.333L387.333 324.667L386.667 324.333z"/>
<path style="fill:#1f6db4; stroke:none;" d="M118.667 325.333L119.333 325.667L118.667 325.333z"/>
<path style="fill:#78ccec; stroke:none;" d="M122.667 325.333L123.333 325.667L122.667 325.333M242.667 325.333L243.333 325.667L242.667 325.333z"/>
<path style="fill:#2696d5; stroke:none;" d="M244 325L245 326L244 325M267.667 325.333L268.333 325.667L267.667 325.333z"/>
<path style="fill:#78ccec; stroke:none;" d="M269.667 325.333L270.333 325.667L269.667 325.333M389 325L390 326L389 325z"/>
<path style="fill:#2696d5; stroke:none;" d="M390 325L391 326L390 325z"/>
<path style="fill:#1f6db4; stroke:none;" d="M114.667 326.333L115.333 326.667L114.667 326.333z"/>
<path style="fill:#78ccec; stroke:none;" d="M119.667 326.333L120.333 326.667L119.667 326.333M245.667 326.333L246.333 326.667L245.667 326.333z"/>
<path style="fill:#2696d5; stroke:none;" d="M247.667 326.333L248.333 326.667L247.667 326.333M264.667 326.333L265.333 326.667L264.667 326.333z"/>
<path style="fill:#78ccec; stroke:none;" d="M266.667 326.333L267.333 326.667L266.667 326.333M392.667 326.333L393.333 326.667L392.667 326.333z"/>
<path style="fill:#2696d5; stroke:none;" d="M394 326L395 327L394 326z"/>
<path style="fill:#78ccec; stroke:none;" d="M115 327L115 328L118 328L115 327M248 327L248 328L252 329L252 328L248 327z"/>
<path style="fill:#2696d5; stroke:none;" d="M251 327L252 328L251 327M260 327L260 329L262 327L260 327z"/>
<path style="fill:#78ccec; stroke:none;" d="M262.667 327.333L263.333 327.667L262.667 327.333M395 327L395 328L398 329L395 327z"/>
<path style="fill:#2696d5; stroke:none;" d="M397 327L398 328L397 327z"/>
<path style="fill:#78ccec; stroke:none;" d="M114 328L115 329L114 328z"/>
<path style="fill:#2696d5; stroke:none;" d="M252 328L253 329L252 328z"/>
<path style="fill:#78ccec; stroke:none;" d="M261 328L262 329L261 328z"/>
<path style="fill:#2696d5; stroke:none;" d="M398 328L399 329L398 328z"/>
<path style="fill:#78ccec; stroke:none;" d="M116.667 329.333L117.333 329.667L116.667 329.333M247.667 329.333L248.333 329.667L247.667 329.333z"/>
<path style="fill:#2696d5; stroke:none;" d="M249.667 329.333L250.333 329.667L249.667 329.333M262 329L263 330L262 329z"/>
<path style="fill:#78ccec; stroke:none;" d="M263 329L263 330L266 330L263 329M394.667 329.333L395.333 329.667L394.667 329.333z"/>
<path style="fill:#2696d5; stroke:none;" d="M396 329L397 330L396 329z"/>
<path style="fill:#1f6db4; stroke:none;" d="M114 330L114 331L117 331L114 330z"/>
<path style="fill:#78ccec; stroke:none;" d="M120.667 330.333L121.333 330.667L120.667 330.333M244.667 330.333L245.333 330.667L244.667 330.333z"/>
<path style="fill:#2696d5; stroke:none;" d="M246 330L247 331L246 330M265.667 330.333L266.333 330.667L265.667 330.333z"/>
<path style="fill:#78ccec; stroke:none;" d="M267.667 330.333L268.333 330.667L267.667 330.333M391 330L392 331L391 330z"/>
<path style="fill:#2696d5; stroke:none;" d="M392 330L393 331L392 330M121.667 331.333L122.333 331.667L121.667 331.333z"/>
<path style="fill:#78ccec; stroke:none;" d="M123.667 331.333L124.333 331.667L123.667 331.333M241.667 331.333L242.333 331.667L241.667 331.333z"/>
<path style="fill:#2696d5; stroke:none;" d="M243 331L244 332L243 331M269 331L270 332L269 331z"/>
<path style="fill:#78ccec; stroke:none;" d="M270.667 331.333L271.333 331.667L270.667 331.333M388 331L389 332L388 331z"/>
<path style="fill:#2696d5; stroke:none;" d="M389 331L390 332L389 331M124.667 332.333L125.333 332.667L124.667 332.333z"/>
<path style="fill:#78ccec; stroke:none;" d="M126 332L126 333L130 334L130 333L126 332M238.667 332.333L239.333 332.667L238.667 332.333z"/>
<path style="fill:#2696d5; stroke:none;" d="M240 332L241 333L240 332M272 332L273 333L272 332z"/>
<path style="fill:#78ccec; stroke:none;" d="M273 332L274 333L273 332M385 332L386 333L385 332z"/>
<path style="fill:#2696d5; stroke:none;" d="M386 332L387 333L386 332M127 333L128 334L127 333z"/>
<path style="fill:#78ccec; stroke:none;" d="M236 333L237 334L236 333z"/>
<path style="fill:#2696d5; stroke:none;" d="M237 333L238 334L237 333M274 333L275 334L274 333z"/>
<path style="fill:#78ccec; stroke:none;" d="M275.667 333.333L276.333 333.667L275.667 333.333M382.667 333.333L383.333 333.667L382.667 333.333z"/>
<path style="fill:#2696d5; stroke:none;" d="M384 333L385 334L384 333M129.667 334.333L130.333 334.667L129.667 334.333z"/>
<path style="fill:#78ccec; stroke:none;" d="M131 334L132 335L131 334M234 334L235 335L234 334z"/>
<path style="fill:#2696d5; stroke:none;" d="M235 334L236 335L235 334M277 334L278 335L277 334z"/>
<path style="fill:#78ccec; stroke:none;" d="M278 334L279 335L278 334M380 334L381 335L380 334z"/>
<path style="fill:#2696d5; stroke:none;" d="M381 334L382 335L381 334M132 335L133 336L132 335z"/>
<path style="fill:#78ccec; stroke:none;" d="M133 335L133 336L140 339L140 338L133 335M231.667 335.333L232.333 335.667L231.667 335.333z"/>
<path style="fill:#2696d5; stroke:none;" d="M279 335L280 336L279 335z"/>
<path style="fill:#78ccec; stroke:none;" d="M280 335L281 336L280 335M378 335L379 336L378 335z"/>
<path style="fill:#2696d5; stroke:none;" d="M379 335L380 336L379 335M134 336L135 337L134 336z"/>
<path style="fill:#78ccec; stroke:none;" d="M229.667 336.333L230.333 336.667L229.667 336.333z"/>
<path style="fill:#2696d5; stroke:none;" d="M281 336L282 337L281 336z"/>
<path style="fill:#78ccec; stroke:none;" d="M282 336L283 337L282 336M376 336L377 337L376 336z"/>
<path style="fill:#2696d5; stroke:none;" d="M377 336L378 337L377 336M136 337L137 338L136 337z"/>
<path style="fill:#78ccec; stroke:none;" d="M227 337L228 338L227 337z"/>
<path style="fill:#2696d5; stroke:none;" d="M228 337L229 338L228 337z"/>
<path style="fill:#78ccec; stroke:none;" d="M284.667 337.333L285.333 337.667L284.667 337.333M374 337L375 338L374 337z"/>
<path style="fill:#2696d5; stroke:none;" d="M375 337L376 338L375 337M138 338L139 339L138 338z"/>
<path style="fill:#78ccec; stroke:none;" d="M226 338L227 339L226 338M286 338L287 339L286 338M372 338L373 339L372 338z"/>
<path style="fill:#2696d5; stroke:none;" d="M373 338L374 339L373 338M113 339L114 340L113 339M140 339L141 340L140 339z"/>
<path style="fill:#78ccec; stroke:none;" d="M141 339L142 340L141 339M224 339L225 340L224 339z"/>
<path style="fill:#2696d5; stroke:none;" d="M225 339L226 340L225 339M287 339L288 340L287 339z"/>
<path style="fill:#78ccec; stroke:none;" d="M288 339L289 340L288 339M370 339L371 340L370 339z"/>
<path style="fill:#2696d5; stroke:none;" d="M371 339L372 340L371 339M142 340L143 341L142 340z"/>
<path style="fill:#78ccec; stroke:none;" d="M143 340L144 341L143 340M222 340L223 341L222 340z"/>
<path style="fill:#2696d5; stroke:none;" d="M223 340L224 341L223 340M289 340L290 341L289 340z"/>
<path style="fill:#78ccec; stroke:none;" d="M290 340L291 341L290 340M369 340L370 341L369 340M144 341L145 342L144 341M221 341L222 342L221 341M291 341L292 342L291 341M367 341L368 342L367 341z"/>
<path style="fill:#2696d5; stroke:none;" d="M368 341L369 342L368 341M145 342L146 343L145 342z"/>
<path style="fill:#78ccec; stroke:none;" d="M146 342L147 343L146 342M219 342L220 343L219 342z"/>
<path style="fill:#2696d5; stroke:none;" d="M220 342L221 343L220 342M292 342L293 343L292 342z"/>
<path style="fill:#78ccec; stroke:none;" d="M293 342L294 343L293 342M366 342L367 343L366 342M147 343L148 344L147 343M218 343L219 344L218 343M294 343L295 344L294 343M364 343L365 344L364 343z"/>
<path style="fill:#2696d5; stroke:none;" d="M365 343L366 344L365 343M148 344L149 345L148 344z"/>
<path style="fill:#78ccec; stroke:none;" d="M149 344L150 345L149 344M216 344L217 345L216 344z"/>
<path style="fill:#2696d5; stroke:none;" d="M217 344L218 345L217 344M295 344L296 345L295 344z"/>
<path style="fill:#78ccec; stroke:none;" d="M296 344L297 345L296 344M363 344L364 345L363 344M150 345L151 346L150 345M215 345L216 346L215 345M297 345L298 346L297 345z"/>
<path style="fill:#2696d5; stroke:none;" d="M362 345L363 346L362 345z"/>
<path style="fill:#78ccec; stroke:none;" d="M151 346L152 347L151 346M214 346L215 347L214 346M298 346L299 347L298 346M360 346L361 347L360 346z"/>
<path style="fill:#2696d5; stroke:none;" d="M361 346L362 347L361 346M152 347L153 348L152 347z"/>
<path style="fill:#78ccec; stroke:none;" d="M212 347L213 348L212 347z"/>
<path style="fill:#2696d5; stroke:none;" d="M213 347L214 348L213 347M299 347L300 348L299 347z"/>
<path style="fill:#78ccec; stroke:none;" d="M359 347L360 348L359 347M154 348L155 349L154 348M211 348L212 349L211 348z"/>
<path style="fill:#2696d5; stroke:none;" d="M300 348L301 349L300 348z"/>
<path style="fill:#78ccec; stroke:none;" d="M358 348L359 349L358 348M155 349L156 350L155 349M210 349L211 350L210 349z"/>
<path style="fill:#2696d5; stroke:none;" d="M301 349L302 350L301 349z"/>
<path style="fill:#78ccec; stroke:none;" d="M302 349L303 350L302 349M357 349L358 350L357 349M156 350L157 351L156 350M209 350L210 351L209 350M303 350L304 351L303 350z"/>
<path style="fill:#2696d5; stroke:none;" d="M356 350L357 351L356 350z"/>
<path style="fill:#78ccec; stroke:none;" d="M157 351L158 352L157 351M208 351L209 352L208 351M304 351L305 352L304 351z"/>
<path style="fill:#2696d5; stroke:none;" d="M355 351L356 352L355 351z"/>
<path style="fill:#78ccec; stroke:none;" d="M158 352L159 353L158 352M207 352L208 353L207 352M305 352L306 353L305 352z"/>
<path style="fill:#2696d5; stroke:none;" d="M354 352L355 353L354 352z"/>
<path style="fill:#78ccec; stroke:none;" d="M159 353L160 354L159 353M206 353L207 354L206 353M306 353L307 354L306 353z"/>
<path style="fill:#2696d5; stroke:none;" d="M353 353L354 354L353 353z"/>
<path style="fill:#78ccec; stroke:none;" d="M160 354L161 355L160 354M205 354L206 355L205 354M307 354L308 355L307 354z"/>
<path style="fill:#2696d5; stroke:none;" d="M352 354L353 355L352 354z"/>
<path style="fill:#78ccec; stroke:none;" d="M161 355L162 356L161 355M204 355L205 356L204 355M308 355L309 356L308 355z"/>
<path style="fill:#2696d5; stroke:none;" d="M351 355L352 356L351 355z"/>
<path style="fill:#78ccec; stroke:none;" d="M162 356L163 357L162 356M203 356L204 357L203 356z"/>
<path style="fill:#2696d5; stroke:none;" d="M308 356L309 357L308 356z"/>
<path style="fill:#78ccec; stroke:none;" d="M350 356L351 357L350 356z"/>
<path style="fill:#2696d5; stroke:none;" d="M97 357L98 358L97 357z"/>
<path style="fill:#78ccec; stroke:none;" d="M163 357L164 358L163 357M202 357L203 358L202 357z"/>
<path style="fill:#2696d5; stroke:none;" d="M309 357L310 358L309 357z"/>
<path style="fill:#78ccec; stroke:none;" d="M349 357L350 358L349 357z"/>
<path style="fill:#2696d5; stroke:none;" d="M163 358L164 359L163 358M202 358L203 359L202 358M310 358L311 359L310 358z"/>
<path style="fill:#78ccec; stroke:none;" d="M348 358L349 359L348 358z"/>
<path style="fill:#2696d5; stroke:none;" d="M164 359L165 360L164 359M201 359L202 360L201 359z"/>
<path style="fill:#78ccec; stroke:none;" d="M311 359L312 360L311 359M165 360L166 361L165 360M200 360L201 361L200 360M312 360L313 361L312 360z"/>
<path style="fill:#2696d5; stroke:none;" d="M347 360L348 361L347 360z"/>
<path style="fill:#78ccec; stroke:none;" d="M166 361L167 362L166 361M199 361L200 362L199 361M313 361L314 362L313 361z"/>
<path style="fill:#2696d5; stroke:none;" d="M346 361L347 362L346 361z"/>
<path style="fill:#78ccec; stroke:none;" d="M167 362L168 363L167 362z"/>
<path style="fill:#2696d5; stroke:none;" d="M313 362L314 363L313 362z"/>
<path style="fill:#78ccec; stroke:none;" d="M345 362L346 363L345 362z"/>
<path style="fill:#2696d5; stroke:none;" d="M167 363L168 364L167 363M198 363L199 364L198 363z"/>
<path style="fill:#78ccec; stroke:none;" d="M314 363L315 364L314 363M344 363L345 364L344 363M168 364L169 365L168 364M197 364L198 365L197 364M315 364L316 365L315 364z"/>
<path style="fill:#2696d5; stroke:none;" d="M344 364L345 365L344 364z"/>
<path style="fill:#78ccec; stroke:none;" d="M169 365L170 366L169 365M196 365L197 366L196 365z"/>
<path style="fill:#2696d5; stroke:none;" d="M315 365L316 366L315 365z"/>
<path style="fill:#78ccec; stroke:none;" d="M343 365L344 366L343 365z"/>
<path style="fill:#2696d5; stroke:none;" d="M92 366L93 367L92 366M169 366L170 367L169 366M196 366L197 367L196 366z"/>
<path style="fill:#78ccec; stroke:none;" d="M316 366L317 367L316 366M342 366L343 367L342 366M170 367L171 368L170 367M195 367L196 368L195 367M317 367L318 368L317 367z"/>
<path style="fill:#2696d5; stroke:none;" d="M342 367L343 368L342 367z"/>
<path style="fill:#78ccec; stroke:none;" d="M171 368L172 369L171 368z"/>
<path style="fill:#2696d5; stroke:none;" d="M317 368L318 369L317 368z"/>
<path style="fill:#78ccec; stroke:none;" d="M341 368L342 369L341 368z"/>
<path style="fill:#2696d5; stroke:none;" d="M88 369L86 370L86 371L88 369M171 369L172 370L171 369z"/>
<path style="fill:#78ccec; stroke:none;" d="M194 369L195 370L194 369M318 369L319 370L318 369z"/>
<path style="fill:#2696d5; stroke:none;" d="M341 369L342 370L341 369z"/>
<path style="fill:#78ccec; stroke:none;" d="M172 370L173 371L172 370M193 370L194 371L193 370M340 370L341 371L340 370z"/>
<path style="fill:#2696d5; stroke:none;" d="M172 371L173 372L172 371M193 371L194 372L193 371z"/>
<path style="fill:#78ccec; stroke:none;" d="M319 371L320 372L319 371M339 371L340 372L339 371z"/>
<path style="fill:#1f6db4; stroke:none;" d="M80 372L81 373L80 372z"/>
<path style="fill:#2696d5; stroke:none;" d="M84 372L85 373L84 372z"/>
<path style="fill:#78ccec; stroke:none;" d="M173 372L174 373L173 372M192 372L193 373L192 372M320.333 372.667L320.667 373.333L320.333 372.667z"/>
<path style="fill:#2696d5; stroke:none;" d="M339 372L340 373L339 372M173 373L174 374L173 373M192 373L193 374L192 373z"/>
<path style="fill:#78ccec; stroke:none;" d="M338 373L339 374L338 373M174 374L175 375L174 374M191 374L192 375L191 374M321.333 374.667L321.667 375.333L321.333 374.667z"/>
<path style="fill:#2696d5; stroke:none;" d="M338 374L339 375L338 374M174 375L175 376L174 375M191 375L192 376L191 375z"/>
<path style="fill:#78ccec; stroke:none;" d="M337 375L338 376L337 375M175 376L176 377L175 376M190 376L191 377L190 376M322.333 376.667L322.667 377.333L322.333 376.667z"/>
<path style="fill:#2696d5; stroke:none;" d="M337 376L338 377L337 376M175 377L176 378L175 377M190 377L191 378L190 377z"/>
<path style="fill:#78ccec; stroke:none;" d="M336.333 377.667L336.667 378.333L336.333 377.667M176 378L177 379L176 378M189 378L190 379L189 378M323.333 378.667L323.667 379.333L323.333 378.667z"/>
<path style="fill:#2696d5; stroke:none;" d="M176 379L177 380L176 379M189 379L190 380L189 379z"/>
<path style="fill:#78ccec; stroke:none;" d="M177 380L178 381L177 380M188.333 380.667L188.667 381.333L188.333 380.667M335 380L336 381L335 380z"/>
<path style="fill:#2696d5; stroke:none;" d="M177 381L178 382L177 381z"/>
<path style="fill:#78ccec; stroke:none;" d="M324 381L325 382L324 381z"/>
<path style="fill:#2696d5; stroke:none;" d="M335 381L336 382L335 381M188 382L189 383L188 382M324 382L325 383L324 382z"/>
<path style="fill:#78ccec; stroke:none;" d="M334 382L335 383L334 382M178 383L179 384L178 383M187 383L188 384L187 383M325.333 383.667L325.667 384.333L325.333 383.667z"/>
<path style="fill:#2696d5; stroke:none;" d="M334 383L335 384L334 383M61 384L62 385L61 384M178 384L179 385L178 384M187 384L188 385L187 384z"/>
<path style="fill:#78ccec; stroke:none;" d="M179.333 385.667L179.667 386.333L179.333 385.667M333 385L334 386L333 385M186 386L187 387L186 386M326 386L327 387L326 386z"/>
<path style="fill:#2696d5; stroke:none;" d="M333 386L334 387L333 386M179 387L180 388L179 387M186 387L187 388L186 387M326 387L327 388L326 387z"/>
<path style="fill:#78ccec; stroke:none;" d="M180.333 388.667L180.667 389.333L180.333 388.667M185.333 388.667L185.667 389.333L185.333 388.667M332 388L333 389L332 388M327 389L328 390L327 389z"/>
<path style="fill:#2696d5; stroke:none;" d="M332 389L333 390L332 389M180 390L181 391L180 390M185 390L186 391L185 390M327 390L328 391L327 390z"/>
<path style="fill:#78ccec; stroke:none;" d="M181.333 391.667L181.667 392.333L181.333 391.667M331 391L332 392L331 391M184.333 392.667L184.667 393.333L184.333 392.667M328.333 392.667L328.667 393.333L328.333 392.667z"/>
<path style="fill:#2696d5; stroke:none;" d="M331 392L332 393L331 392M181 393L182 394L181 393M184 394L185 395L184 394M328 394L329 395L328 394z"/>
<path style="fill:#78ccec; stroke:none;" d="M330 394L329 397L330 394M182 395L182 397L184 397L184 395L182 395z"/>
<path style="fill:#2696d5; stroke:none;" d="M330 396L331 397L330 396M182.667 397.333L183.333 397.667L182.667 397.333z"/>
</svg>
